<?xml version="1.0" encoding="iso-8859-1"?>
<!-- Generator: Adobe Illustrator 19.0.0, SVG Export Plug-In . SVG Version: 6.00 Build 0)  -->
<svg version="1.1" id="Capa_1" xmlns="http://www.w3.org/2000/svg" xmlns:xlink="http://www.w3.org/1999/xlink" x="0px" y="0px"
	 viewBox="0 0 511.998 511.998" style="enable-background:new 0 0 511.998 511.998;" xml:space="preserve">
<g>
	<g>
		<path d="M499.501,232.055h-36.115c0.74-44.029-17.436-67.17-33.341-78.942c-16.748-12.395-39.252-12.394-55.998,0
			c-15.904,11.772-34.08,34.913-33.341,78.942h-23.369c0.767-45.193-18.313-68.469-34.997-80.135
			c-15.756-11.017-36.928-11.017-52.683,0c-16.684,11.666-35.765,34.942-34.997,80.135h-23.366
			c0.119-7.174-0.254-14.046-1.127-20.507c-0.554-4.105-4.327-6.98-8.436-6.428c-4.105,0.555-6.982,4.331-6.428,8.436
			c0.782,5.791,1.115,11.99,0.995,18.499H63.605c-0.715-38.819,14.918-58.275,28.601-67.843c10.357-7.242,24.378-7.182,35.718,0.151
			c2.969,1.92,5.475,3.891,7.449,5.857c2.935,2.923,7.683,2.914,10.606-0.021c2.923-2.934,2.913-7.683-0.021-10.605
			c-2.715-2.704-6.041-5.337-9.889-7.825c-16.487-10.661-37.079-10.602-52.458,0.151c-16.684,11.666-35.765,34.942-34.997,80.135
			H12.499C5.607,232.055,0,237.662,0,244.554v25.101c0,6.892,5.607,12.499,12.499,12.499h5.748l5.711,65.639
			c1.019,11.714,10.655,20.548,22.413,20.548h43.874c5.97,0,11.121-4.221,12.247-10.036c1.287-6.642,7.146-11.462,13.93-11.462
			c6.783,0,12.641,4.821,13.93,11.465c1.128,5.813,6.279,10.033,12.247,10.033h89.132c5.969,0,11.12-4.22,12.248-10.034
			c1.288-6.642,7.146-11.464,13.929-11.464c6.785,0,12.642,4.82,13.929,11.462c1.127,5.815,6.279,10.036,12.249,10.036h89.131
			c5.97,0,11.121-4.22,12.247-10.033c1.289-6.643,7.152-11.465,13.94-11.465c6.784,0,12.641,4.821,13.93,11.466
			c1.129,5.813,6.28,10.032,12.247,10.032h40.045c11.759,0,21.395-8.833,22.414-20.548l5.711-65.639h5.748
			c6.892,0,12.499-5.607,12.499-12.499v-25.101C512,237.662,506.393,232.055,499.501,232.055z M382.971,165.169
			c11.411-8.446,26.745-8.445,38.152,0c22.657,16.769,27.646,44.402,27.266,66.886H355.7
			C355.01,194.196,369.914,174.834,382.971,165.169z M238.253,164.213c10.615-7.422,24.878-7.422,35.494,0
			c23.762,16.615,28.987,44.825,28.595,67.843h-92.69C208.937,193.237,224.57,173.78,238.253,164.213z M486.962,267.156
			c-0.028,0-0.056-0.004-0.084-0.004H370.279c-4.142,0-7.499,3.358-7.499,7.499s3.357,7.499,7.499,7.499h108.419l-5.598,64.344
			c-0.34,3.905-3.552,6.849-7.472,6.849H427.57c-3.425-12.578-14.941-21.498-28.163-21.498c-13.226,0-24.747,8.919-28.173,21.498
			h-85.16c-3.422-12.579-14.939-21.498-28.163-21.498c-13.223,0-24.739,8.919-28.163,21.498h-85.16
			c-3.424-12.579-14.94-21.498-28.163-21.498c-13.224,0-24.74,8.92-28.164,21.498H46.372c-3.92,0-7.132-2.945-7.471-6.849
			l-5.599-64.344h282.316c4.142,0,7.499-3.358,7.499-7.499s-3.357-7.499-7.499-7.499H25.122c-0.028,0-0.056,0.004-0.084,0.004
			H14.999v-20.102h41.419h107.069h38.978h107.069h38.978h107.069h41.42v20.102H486.962z"/>
	</g>
</g>
<g>
</g>
<g>
</g>
<g>
</g>
<g>
</g>
<g>
</g>
<g>
</g>
<g>
</g>
<g>
</g>
<g>
</g>
<g>
</g>
<g>
</g>
<g>
</g>
<g>
</g>
<g>
</g>
<g>
</g>
</svg>
