<?xml version="1.0" encoding="utf-8"?>
<!-- Generator: Adobe Illustrator 23.0.2, SVG Export Plug-In . SVG Version: 6.00 Build 0)  -->
<svg version="1.1" id="Layer_1" xmlns="http://www.w3.org/2000/svg" xmlns:xlink="http://www.w3.org/1999/xlink" x="0px" y="0px"
	 viewBox="0 0 512 512" style="enable-background:new 0 0 512 512;" xml:space="preserve">
<g>
	<path d="M318.9,329.9H117.1c-5.5,0-10,4.5-10,10s4.5,10,10,10h201.8c5.5,0,10-4.5,10-10S324.4,329.9,318.9,329.9z"/>
	<path d="M348.1,154.2h-63c-5.5,0-10,4.5-10,10s4.5,10,10,10h63c5.5,0,10-4.5,10-10S353.7,154.2,348.1,154.2z"/>
	<path d="M348.1,192.8h-63c-5.5,0-10,4.5-10,10s4.5,10,10,10h63c5.5,0,10-4.5,10-10S353.7,192.8,348.1,192.8z"/>
	<path d="M295.8,250.4c5.5,0,10-4.5,10-10s-4.5-10-10-10h-10.6c-5.5,0-10,4.5-10,10s4.5,10,10,10H295.8z"/>
	<path d="M458,423.7h-14.9h-28.4h-20.1h-31.4H189.4c-5.5,0-10,4.5-10,10c0,32.1-26.1,58.1-58.1,58.1c-32.1,0-58.1-26.1-58.1-58.1
		V107.3h11.3v13.9c0,5.5,4.5,10,10,10h56.2c5.5,0,10-4.5,10-10v-13.9h156.3v13.9c0,5.5,4.5,10,10,10h56.2c5.5,0,10-4.5,10-10v-13.9
		h11.3v63.3v41.3v195.1h20.1V222.4c0-0.4,0-0.7,0-1.1v-39.6v-11.2V97.2c0-5.5-4.5-10-10-10h-21.4V73.3c0-5.5-4.5-10-10-10h-18.1V10
		c0-5.5-4.5-10-10-10s-10,4.5-10,10v53.2H317c-5.5,0-10,4.5-10,10v13.9H150.7V73.3c0-5.5-4.5-10-10-10h-18.1V10c0-5.5-4.5-10-10-10
		c-5.5,0-10,4.5-10,10v53.2H84.5c-5.5,0-10,4.5-10,10v13.9H53c-5.5,0-10,4.5-10,10v336.5c0,43.1,35,78.2,78.1,78.2c0,0,0,0,0.1,0
		h268.6c43.1,0,78.2-35.1,78.2-78.2C468,428.2,463.5,423.7,458,423.7z M327,83.3h36.1v27.8H327V83.3z M94.5,83.3h36.1v27.8H94.5
		V83.3z M389.8,491.9H173.5c13.6-12.2,22.9-29.1,25.3-48.1h248.2C442.3,471.1,418.4,491.9,389.8,491.9z"/>
	<path d="M237.7,370H117.1c-5.5,0-10,4.5-10,10s4.5,10,10,10h120.6c5.5,0,10-4.5,10-10S243.3,370,237.7,370z"/>
	<path d="M112.9,302.7h136.7c3.2,0,5.9-2.6,5.9-5.9V160.1c0-3.2-2.6-5.9-5.9-5.9H112.9c-3.2,0-5.9,2.6-5.9,5.9v136.7
		C107.1,300.1,109.7,302.7,112.9,302.7z M128.4,175.5h105.9v105.9H128.4V175.5z"/>
</g>
</svg>
