<svg id="Layer_1" data-name="Layer 1" xmlns="http://www.w3.org/2000/svg" viewBox="0 0 1000 1000"><defs><style>.cls-1{fill:none;stroke:#000;stroke-linecap:round;stroke-linejoin:round;stroke-width:25px;}.cls-2{font-size:120px;fill:#b82025;font-family:FiraSans-MediumItalic, Fira Sans;font-weight:500;font-style:italic;letter-spacing:0.01em;}</style></defs><path class="cls-1" d="M96,903.94,246.63,753.3m0-294c-81.19,81.2-81.19,212.84,0,294m0-294c81.2,81.2,81.2,212.84,0,294m0,0c81.2-81.19,212.84-81.19,294,0m-294,0c81.2,81.2,212.84,81.2,294,0M367.75,338.16c-81.2,81.19-81.19,212.84,0,294m0-294c81.19,81.19,81.19,212.84,0,294m0,0c81.19-81.19,212.83-81.19,294,0m-294,0c81.19,81.19,212.83,81.19,294,0M488.86,217.05c-81.19,81.19-81.19,212.83,0,294m0-294c81.19,81.19,81.19,212.83,0,294m0,0c81.19-81.2,212.83-81.2,294,0m-294,0c81.19,81.19,212.83,81.19,294,0M610,95.94c-81.19,81.19-81.19,212.83,0,294m0-294c81.2,81.19,81.2,212.83,0,294m0,0c81.2-81.19,212.84-81.19,294,0m-294,0c81.2,81.2,212.84,81.2,294,0M663.63,336.31c0-114.83,93.08-207.91,207.91-207.91M663.63,336.31c114.82,0,207.91-93.09,207.91-207.91"/><text class="cls-2" transform="translate(88.44 164.75)">New</text></svg>