<svg xmlns="http://www.w3.org/2000/svg" width="132" height="38" style=""><rect id="backgroundrect" width="100%" height="100%" x="0" y="0" fill="none" stroke="none" class="" style=""/><g class="currentLayer" style=""><title>Layer 1</title><path fill="#253574" d="M0,0 h132 v28 H0 z" id="svg_14" class=""/><path fill="#FFFFFE" d="M58,28 l-9.6,-10 L39,28 z" id="svg_15" class=""/><path fill="#189A62" d="M39,28 l9.6,10 L58,28 z" id="svg_16" class=""/><path d="M17,17.5 c-2.2,0 -3.8,-1.3 -3.8,-3.6 c0,-2.1 1.4,-3.7 3.6,-3.7 c1,0 2,0.30000000000000004 3,0.8 l0.2,-2.5 c-1.1,-0.30000000000000004 -2.2,-0.6000000000000001 -3.4,-0.6000000000000001 c-3.8,0 -6.5,2 -6.5,5.9 c0,4.3 3.5,5.8 6.5,5.8 c1.6,0 2.5,-0.2 3.4,-0.5 l-0.1,-2.4 c-0.9,0.5 -1.9,0.8 -2.9,0.8 zm11,-5 h-3.5 v-4.3 h-3.1 v11.3 h3.1 v-4.8 H28 v4.8 h3.1 V8.200000000000003 H28 zM40,14 c1.5,-0.4 2.2,-1.4 2.2,-2.9 c0,-1.9 -1.6,-2.9 -3.7,-2.9 h-5.4 v11.3 h3 V15 h0.6000000000000001 c1.1,0 1.5,0.5 2.1,2.4 l0.7000000000000001,2 h3.2 l-1.1,-3.1 c-0.5,-1.2 -0.6000000000000001,-2.1 -1.6,-2.3 zm-3,-1.1 h-0.8 v-2.6 h0.8 c1.2,0 2.2,0.2 2.2,1.3 c0,1.3 -1.3,1.3 -2.2,1.3 zm23.7,-0.4 h-3.6 v-4.3 h-3 v11.3 h3 v-4.8 h3.6 v4.8 h3 V8.200000000000003 h-3 zm8.6,-4.3 L65,19.5 h3 l0.9,-2.4 h4.3 l0.8,2.4 h3.3 L73,8.200000000000003 h-3.7 zm0.30000000000000004,6.8 l1.5,-4.4 l1.4,4.4 h-2.9 zm16.8,0.9 h-0.1 l-3.8,-7.7 h-3.9 v11.3 h2.8 l-0.1,-7.7 l4,7.7 h3.8 V8.200000000000003 h-2.8 zm7.6,-4.6 c0,-1 1.3,-1.1 2,-1.1 c0.9,0 1.7000000000000002,0.2 2.5,0.5 l0.2,-2.3 c-0.8,-0.30000000000000004 -1.8,-0.4 -2.9,-0.4 c-2.3,0 -5,0.7000000000000001 -5,3.5 c0,4.1 5.4,2.8 5.4,4.9 c0,0.9 -0.9,1.1 -1.9,1.1 c-1.3,0 -2.4,-0.30000000000000004 -3.1,-0.7000000000000001 l-0.30000000000000004,2.5 c1,0.30000000000000004 2.3,0.5 3.4,0.5 c2.5,0 5,-0.8 5,-3.7 c0.1,-4.2 -5.3,-3 -5.3,-4.8 zm10.2,3.5 h4.7 v-2.1 h-4.7 v-2.3 h5 v-2.2 h-8.1 v11.3 h8.3 v-2.1 h-5.2 zm14.8,-6.6 v7.7 l-3.9,-7.7 h-3.9 v11.3 h2.8 l-0.1,-7.7 h0.1 l4,7.7 h3.7 V8.200000000000003 z" fill="#FFFFFE" id="svg_17" class=""/></g></svg>