<?xml version="1.0" encoding="utf-8"?>
<!-- Generator: Adobe Illustrator 20.0.0, SVG Export Plug-In . SVG Version: 6.00 Build 0)  -->
<svg version="1.1" id="Layer_1" xmlns="http://www.w3.org/2000/svg" xmlns:xlink="http://www.w3.org/1999/xlink" x="0px" y="0px"
	 viewBox="0 0 36.3 36.2" style="enable-background:new 0 0 36.3 36.2;" xml:space="preserve">
<path d="M7.3,36.2c-1.5,0-3-0.8-3.8-2.1l-2.9-4.4C0,28.9-0.1,27.9,0.1,27c0.2-0.9,0.9-1.7,1.7-2.1l6.9-3.6c1.4-0.8,3.2-0.4,4.2,0.9
	l2,2.5c1.9-1.1,3.6-2.2,5.5-4.2c1.9-1.9,3.1-3.6,4.2-5.6L22.3,13c-1.3-1-1.7-2.8-0.9-4.2l3.6-6.9C25.4,1,26.1,0.4,27,0.1
	C28-0.1,29,0,29.8,0.6l4.4,2.9c1.3,0.9,2.1,2.4,2,4.1c-0.1,1.2-0.3,2.9-0.6,4.2c-1.3,5.2-4.5,10.5-9,14.9c-4.5,4.5-9.8,7.7-14.9,9
	c-1.5,0.4-3.6,0.5-4.2,0.6C7.5,36.2,7.4,36.2,7.3,36.2 M10.4,23.1c-0.2,0-0.4,0-0.5,0.1l-7,3.6c-0.3,0.2-0.5,0.4-0.6,0.7
	c-0.1,0.3,0,0.7,0.2,1l2.9,4.4c0,0,0,0,0,0c0.5,0.7,1.3,1.1,2.1,1.1c1.1-0.1,2.7-0.2,3.8-0.5c4.8-1.2,9.7-4.2,13.9-8.4
	c4.2-4.2,7.2-9.1,8.4-13.9c0.3-1.1,0.4-2.7,0.5-3.8c0-0.8-0.4-1.6-1.1-2.1l-4.4-2.9c-0.3-0.2-0.6-0.2-1-0.2
	c-0.3,0.1-0.6,0.3-0.7,0.6l-3.6,6.9c-0.3,0.5-0.1,1.2,0.3,1.5l3.2,2.5c0.4,0.3,0.5,0.9,0.3,1.4c-1.4,2.6-2.7,4.6-5.1,6.9
	c-2.4,2.4-4.5,3.7-6.8,5c-0.5,0.3-1.1,0.1-1.4-0.3l-2.5-3.3C11.1,23.2,10.7,23.1,10.4,23.1"/>
</svg>
