<?xml version="1.0" encoding="utf-8"?>
<!-- Generator: Adobe Illustrator 20.0.0, SVG Export Plug-In . SVG Version: 6.00 Build 0)  -->
<svg version="1.1" id="Layer_1" xmlns="http://www.w3.org/2000/svg" xmlns:xlink="http://www.w3.org/1999/xlink" x="0px" y="0px"
	 viewBox="0 0 28 28" style="enable-background:new 0 0 28 28;" xml:space="preserve">
<style type="text/css">
	.st0{fill-rule:evenodd;clip-rule:evenodd;}
</style>
<path class="st0" d="M17.5,17.5c3.3-3.3,3.3-8.8,0-12.1C14.1,2,8.7,2,5.4,5.4C2,8.7,2,14.1,5.4,17.5C8.7,20.8,14.1,20.8,17.5,17.5
	 M20.4,18.4l7.1,7.1c0.6,0.6,0.6,1.5,0,2c-0.6,0.6-1.5,0.5-2,0l-7.1-7.1c-4.5,3.5-11,3.2-15.1-0.9C-1.1,15-1.1,7.8,3.3,3.3
	c4.5-4.5,11.7-4.5,16.2,0C23.6,7.5,23.9,13.9,20.4,18.4"/>
</svg>
