<?xml version="1.0" encoding="utf-8"?>
<!-- Generator: Adobe Illustrator 20.0.0, SVG Export Plug-In . SVG Version: 6.00 Build 0)  -->
<svg version="1.1" id="Layer_1" xmlns="http://www.w3.org/2000/svg" xmlns:xlink="http://www.w3.org/1999/xlink" x="0px" y="0px"
	 viewBox="0 0 35.7 23.6" style="enable-background:new 0 0 35.7 23.6;" xml:space="preserve">
<path d="M12.6,13.3l4.5,3.5c0.4,0.3,1.1,0.3,1.5,0l4.5-3.5l8.4,7.8H4.3L12.6,13.3z M33.3,5.3v14.2l-8.2-7.7L33.3,5.3z M2.4,5.3
	l8.2,6.4l-8.2,7.7V5.3z M2.7,2.4h30.4L17.9,14.3L2.7,2.4z M1.6,0C0.7,0,0,0.7,0,1.6v20.3c0,0.9,0.7,1.6,1.6,1.6h32.5
	c0.9,0,1.6-0.7,1.6-1.6V1.6C35.7,0.7,35,0,34.1,0H1.6z"/>
</svg>
