<svg id="Lager_1" data-name="Lager 1" xmlns="http://www.w3.org/2000/svg" viewBox="0 0 300.47 79.37"><defs><style>.cls-1{fill:#fff}</style></defs><title>Logotyp_SVG</title><path class="cls-1" d="M245.71 30.81v-4.28h-7.37v32.61h7.78V41.56c0-5.65 2.79-8.2 8.26-8.2h.36v-7.84c-4.94.06-7.61 2.37-9.03 5.29zm-71.21 8.37c-3.08-.89-5.26-2-5.28-4.1 0-1.6 1.13-3.26 3.75-3.26 2.93 0 4.07 1.52 4.45 3.32l6.82-1.83c-1.4-6.16-7.11-7.79-11.1-7.79-6.3 0-11.61 4-11.72 10.39 0 4.7 3.33 7.13 7.7 8.5 6 2.08 8.38 2.85 8.33 5.64 0 2.2-2.09 3.81-4.52 3.81-2.18 0-4.71-.81-5.46-4.17l-7.21 1.94c1.32 6.34 7 8.52 12.44 8.52 6.83 0 12.55-4.27 12.55-11 .07-7-5.55-8.54-10.75-9.97zm100.91-13.66a13.58 13.58 0 0 0-11.52 5.76v-4.75h-7.31v45.38h7.78v-17.1c1.31 2.08 4.76 5.34 11.11 5.34 9.57 0 16.5-7.78 16.5-17 .03-7.95-5.15-17.63-16.56-17.63zm8.44 17.35a9.82 9.82 0 0 1-9.92 10 9.85 9.85 0 0 1-9.92-10 10.3 10.3 0 0 1 2.79-7.19 9.64 9.64 0 0 1 7.07-3 9.83 9.83 0 0 1 10 10zm-123.09-9.51v-7.84c-4.93.06-7.6 2.37-9 5.29v-4.28h-7.37v32.61h7.79V41.56c0-5.65 2.79-8.2 8.25-8.2zm57.53-7.78a17 17 0 0 0-17.47 17.17v.06c0 8.43 6.12 17.28 17.47 17.28s17.47-8.85 17.47-17.28-6.12-17.23-17.47-17.23zm0 27.21a9.66 9.66 0 0 1-9.68-9.92v-.06a9.66 9.66 0 1 1 19.31 0 9.64 9.64 0 0 1-9.63 9.98zM104.17 18.21c-2.56-2-5.53-3-13-3H77.91v44h8.85V44.05h5.41c6.41 0 9.38-1.07 12.35-3.5 2.8-2.26 4.64-6.77 4.64-11.11a14.52 14.52 0 0 0-4.99-11.23zm-6.42 16.93A11.92 11.92 0 0 1 92 36.27h-5.24V23h4.87a12.47 12.47 0 0 1 6 1.13 5.72 5.72 0 0 1 3 5.47 6 6 0 0 1-2.88 5.54zm27.17-9.62c-9.58 0-16.63 8.14-16.63 17.41 0 9.08 7 17.22 16.75 17.22a17.83 17.83 0 0 0 10.33-2.85 16.15 16.15 0 0 0 4.63-4.81l-6.35-3.39c-1.57 2.68-4.5 4.4-8.52 4.4-4.24 0-8.66-2.85-9-8.08h25.33a17.91 17.91 0 0 0-4.67-14.91 16 16 0 0 0-11.87-4.99zm-8.71 14a8.53 8.53 0 0 1 8.79-7.41 8.7 8.7 0 0 1 8.83 7.37zm86.09-12.99h-5.58V15.18h-7.78v11.35h-3.68v6h3.68v26.61h7.78V32.53h5.58zM8.5 71.91h8V15.18h7.31v5.38c2.12-2.22 7-5.82 15-5.82C51.23 14.74 60.54 26 60.54 37c0 11.5-9.31 22.24-21.95 22.24a21.39 21.39 0 0 1-14.78-5.36v18h43.08V7.46H8.5zM52.84 37A14.44 14.44 0 1 0 38.4 51.79 14.59 14.59 0 0 0 52.84 37zm-8.35 10a3.88 3.88 0 1 1 3.87-3.88A3.88 3.88 0 0 1 44.49 47zm0-19.93A3.88 3.88 0 1 1 40.61 31a3.88 3.88 0 0 1 3.88-3.93zm-12.17 0A3.88 3.88 0 1 1 28.44 31a3.88 3.88 0 0 1 3.88-3.93zm0 19.93a3.88 3.88 0 1 1 3.88-3.88A3.88 3.88 0 0 1 32.32 47zm-3.88-8.88V36h8.88v-8.93h2.17V36h8.87v2.17h-8.87V47h-2.17v-8.88z"/></svg>