<?xml version="1.0" encoding="utf-8"?>
<!-- Generator: Adobe Illustrator 24.0.1, SVG Export Plug-In . SVG Version: 6.00 Build 0)  -->
<svg version="1.2" baseProfile="tiny" id="Celtichomeicon"
	 xmlns="http://www.w3.org/2000/svg" xmlns:xlink="http://www.w3.org/1999/xlink" x="0px" y="0px" viewBox="0 0 450 297"
	 xml:space="preserve">
<path fill="none" stroke="#FFFFFF" stroke-width="6" d="M424.1,73.3C396.8,63.7,245.3,10.8,230.4,10C221.8,9.6,25.6,67.4,25.6,78.9
	c0,12.1,190.6,82.9,206.7,81c28.9-3.3,96.2-35.7,108-34.8c24.3,1.9,14.5,71.1,0,78.8c-142.2,75.7-213.6-12.7-241.1-4.6l-62.5,63.8
	c1,9.6,24.6,28.9,31.7,22.3c51.2-47.5,17.7-162,37.2-168.6c12-4,84.3-33.3,127.6-50.3"/>
</svg>
