<?xml version="1.0" encoding="utf-8"?>
<!-- Generator: Adobe Illustrator 24.0.1, SVG Export Plug-In . SVG Version: 6.00 Build 0)  -->
<svg version="1.2" baseProfile="tiny" id="Celtichomeicon"
	 xmlns="http://www.w3.org/2000/svg" xmlns:xlink="http://www.w3.org/1999/xlink" x="0px" y="0px" viewBox="0 0 450 297"
	 xml:space="preserve">
<path fill="none" stroke="#FFFFFF" stroke-width="6" d="M12,109.4c0,3.9,1.2,11.5,8.3,13.1c11.3,2.5,20.8-3.4,24.6-8.8
	c2.3-3.2,8.9-9.6,0-15.8c-5.3-3.7-12.5,1-12.7,4.4c-1.3,18.6,14.6,11.1,20.2,10.1c9.1-1.6,47-34.9,63.6-45.1
	c30-18.5,67.7-30.5,106.8-30.8c59.2-0.5,101.5,23.7,126.3,29.9c8.3,2.1,29.3-3.1,33.8-20.2c1.8-6.9-3.9-13.6-3.9-13.6
	s-9.2-1.7-14.8,7.4c-7,11.5,2.1,34.7,10.8,39.5c8.3,4.5,30.5-3.7,35.9-11.4c7.3-10.3,1-21.9,1-21.9s-10.7-0.1-14.6,4.4
	c-9.1,10.6-4.5,30.3,0.4,38.6c5.9,9.8,39.4,18.7,40.3,21.9c2,7.4-2.3,24.8-8.3,29.4c-1.6,1.2-8.5,1.5-9.6,2.9
	c-7.7,9.7-41.5,27.1-58.3,27.3c-14.2,0.1-42.5-8.2-45.6-20.3c-0.6-2.5-2.3-8.3,5.9-8.3c6.5,0,8.7,37.7,6.9,50.5
	c-0.3,2.3-4.2,14-4.4,18.9c-0.3,11.6,4.2,39.9,7.9,45.6c-0.9,4.4-14.8,4.3-18.1,0.9c-2.2-2.3,0.1-10.5-0.7-13.6
	c-2.5-9.7-21.5-53.3-20.5-64c0.3-3.4,0.8-11.3,4.2-11c3.8,0.4,3.2,11.1,3.1,14.9c-0.5,15.8-15.3,45.3-15.3,61.1
	c0,6.9,3.6,12.4,3.1,13.9c-1.4,4-14.2,3.1-17.1,0c-3.5-3.7,2-15.1,1.3-20.2c-1-8.1-9.5-40.9-10.5-54.8c-0.3-4.7-2.7-15.7,0.9-18.9
	c1.9-1.7,8.4-1.3,9.4,1c4.5,11.5-21.1,31.2-32.1,36.7c-12.3,6.1-34,11.7-54.8,3.9c-12.2-4.6-34.2-22.8-38.6-35.1
	c-1-2.7-3.8-9.4,1.8-11.4c1.9-0.7,6.5,0.9,7.4,2.6c3.5,6.4-1.9,35.5-1.7,44.3c0,1.6,3.2,6.3,3.9,10.1c0.9,4.2-0.5,12.9,0.4,17.1
	c0.5,2.2,2.4,6.1,2.8,8.3c0.8,4,0.4,12.4,0.3,16.2c-4.7,0.2-9.9-0.6-16.1-0.6c-0.1-4.4,0.2-11.7-0.9-15.8
	c-3.6-13.9-20.5-38.4-25.3-52c-0.9-2.5-1.2-7.7,4.1-9.2c2.3-0.7,5.4,1.6,6.4,6.3c1.8,8-9,42-12,57.1c-0.5,2.7,1.4,9.4-0.7,11.3
	c-3,2.7-13.5,1-13.5-3.2c0-2.7,0.6-10.4-1.6-13.4c0,0,1.9-14.7,3.6-21.8c0.5-1.9-1.5-22.6-3.3-28.8c-0.9-2.9-17.8-13-25-31.1
	c-2-5.2-6.4-11.8-5.7-21.5"/>
</svg>
