<?xml version="1.0" encoding="utf-8"?>
<!-- Generator: Adobe Illustrator 24.0.1, SVG Export Plug-In . SVG Version: 6.00 Build 0)  -->
<svg version="1.2" baseProfile="tiny" id="Celtichomeicon"
	 xmlns="http://www.w3.org/2000/svg" xmlns:xlink="http://www.w3.org/1999/xlink" x="0px" y="0px" viewBox="0 0 450 297"
	 xml:space="preserve">
<g>
	<path fill="none" stroke="#FFFFFF" stroke-width="6" d="M173.4,230.5c-3.1,1.1-4,11.2-4.4,15.1c-0.4,3.6-1.9,10.9,3.7,16.4
		c2.8,2.8,11.7,2,16.6,3.3c12.1,3.4-6.4,3.1-7.5,6.5c-1.2,3.8,15,4.9,17.7,7.8c1.8,1.9-21.1-1.5-20.1-0.4c3.8,4.1,5.3,6.3,4.7,7.1
		c-2,2.5-10.3-4-13.1-6.2c-2.9-2.3-7.5-9.2-11.2-9.7c-3.6-0.5-13.2,5.2-15.6,2.5c-0.8-0.9,2.1-3.5,3.6-3.6
		c3.5-0.3,10.9-2.1,13.1-5.1c2.1-2.8,2.5-7.8,2.4-13c0-2.5-0.6-7.3-0.6-7.3s-2.8-15.4-2.4-20.5c0.1-1.1-0.4-2.8,2-3.9
		c1.6-0.8,6.9,0.4,6.8,2.1c-0.1,1.4-3.9,2.1-5.3,2.1c-2.8-0.1-9.2-0.9-11.4-2.3c-3-1.9-7.7-5.1-7.8-10.8c0-4.4,1.1-13.1,0.6-17.5
		c-0.6-5.2-5.2-12.4-7.4-16.4c-5.4-10.1-13-20.3-13.2-31.8c-0.1-5.8,3.3-15.1,7.1-20.2c4.6-6.1,5.1-7.8,19.3-18.8
		c6.8-5.3,24.3-12.3,32.7-14.6c8.4-2.3,25.1-6.2,33.2-4.8c8.2,1.4,12.4,6.6,13.2,11.8c1.9,11.9-1.8,42.6-11.2,51.9
		c-6.9,6.8-17.1,11.7-35.9,10.6c-16.8-0.9-38.3-7.6-38.7-15c-0.5-8,14.7-21.5,21.3-27.1c8.3-7,18-14.1,26.9-19.9
		c9.5-6.2,21.7-10.3,26.9-16.2c4.7-5.3,9.5-34.7,16.5-46c7.6-12.3,27.5-25.5,50.7-26.8c13.8-0.8,30.9,11.5,30.4,28.3"/>
	<path fill="none" stroke="#FFFFFF" stroke-width="6" d="M300.9,54.7c-1.7,0.1-6-12.2-4.7-15.1c0.6-1.3,3.3-3,4.7-3.1
		c1.7-0.1,5,1.2,6.3,2.3c1.1,1,2.5,5.2,1.2,6c-0.9,0.5-2.8,0.3-3.1-2.6c-0.3-3.3,2.5-4,3.8-3.7c4.4,0.9,17.1,11.5,16.2,13
		C324.8,52.4,308.7,54.4,300.9,54.7z"/>
	<path fill="none" stroke="#FFFFFF" stroke-width="6" d="M306.1,54.7c-4.9,7.9-22.8,24.2-31.8,26.2c-6,1.3-24.5,2-24.6,0
		c-0.2-2.4,21.5-3.3,26.8,0.9c2.6,2.1,5.6,8.6,6.4,11.8c2.7,11.2,4.9,34.5,4.7,45.7c-0.1,7.9-3.9,24.5-9.1,30.5
		c-3.2,3.7-12.5,8.5-17.4,9.3c-4.2,0.6-13.2,0.5-17.1-1.4c-3.6-1.8-14.1-7.6-11.7-11.1c2.3-3.4,12,4.8,12.2,8.5
		c0.2,2.7-3.7,7.6-5.8,9.3c-11.4,8.8-55.4,24.3-55.7,21.1c-0.3-2.6,10.1-13.9,8.1-19.2c-2.2-5.9-10.6-12.4-19.5-12.9
		c-6.3-0.3-12.8-2.4-24.6,5.3c-3.6,2.3-7,15.7,0.9,26.8c4.1,5.8,8.3,6.7,11.7,7.4c6.2,1.2,18.9-2.1,25.2-1.3
		c2.2,0.3,6.6,1.7,8.1,3.3c7.5,7.9,16.9,33.9,17.2,39.9c0.4,6.8-9.4,9.5-7.3,11.7c2.8,2.8,11.3-3.7,14.8-5.6
		c1.9-1,6.5,17.7,11.3,16.8c2.9-0.5-0.9-10,0.1-12.8c0.5-1.4,3.6-3.3,5.1-3.3c4.4,0,15.2,7.2,20.8,8.4c4.4,0.9,16.9,2.5,17.8-1.9
		c0.5-2.1-4.8-4.4-6.8-5c-6.1-1.7-18.9-2.2-24.9-4.3c-3.1-1.1-9.2-4.2-11.5-6.5c-7.4-7.6-19.9-25.8-22.5-36.2c-0.6-2.6,0-8,0-10.7"
		/>
</g>
</svg>
