<?xml version="1.0" encoding="utf-8"?>
<!-- Generator: Adobe Illustrator 24.0.1, SVG Export Plug-In . SVG Version: 6.00 Build 0)  -->
<svg version="1.2" baseProfile="tiny" id="Celtichomeicon"
	 xmlns="http://www.w3.org/2000/svg" xmlns:xlink="http://www.w3.org/1999/xlink" x="0px" y="0px" viewBox="0 0 450 297"
	 xml:space="preserve">
<path fill="none" stroke="#FFFFFF" stroke-width="6" d="M14.1,247.2c-9.4-59.1,48.5-139.4,63.1-186c7-22.2-2.3-26-10.4-27
	C38.1,30.7,36.9,78,36.3,85.6c-0.9,11.5-0.2,34.6,1.4,46c1.8,12.7,6.7,39.1,9.7,50.5c1.2,4.4-2.7,20.7-3.3,27.6
	c-0.5,6.4-0.8,19-0.3,25.4c0.8,8.1,3.3,24.2,4.2,32.5c0.4,3.2,0.5,10.4,0,13c4.7,1.9,14,1.7,17.8,0c0-2-0.1-6.6-0.1-6.6
	s-3.3-6.1-3.3-8.4c-0.4-13.8,1.9-44.9,5.5-59.4c2.9-11.7,11.6-35.3,13-46c0.2-1.7-0.6-4.9-3.7-5.1c-3.2-0.2-4.4,8.2-4.4,11.4
	c0,13.6,1.9,45.6,3.7,60.7c1.5,12.9,2.6,43.5,3.4,52.2c1.2,3.2,17.9,1.1,17.9,1.1c0.2-1,0.2-5.3,0.2-5.3s-2.6-6.1-3.1-8.2
	c-1.7-6.9-2.5-21.1-2.3-28.2c0.3-9.2,3.7-27.3,5.9-36.1c2.6-10.5,10.4-30.9,13-41.5c0.7-2.8,1.5-9.1,0-11.6c-1-1.7-6.1-3-7.6-1.7
	c-4.4,3.8,1.5,18.1,4.8,22.9c12,17.4,39.4,39.8,76.3,37.1c14.7-1.1,44.5-3.5,56.6-11.1c7.8-5,25.3-15.9,23.1-29.1
	c-0.3-1.8-2.5-4.2-6.1-3c-3.7,1.3-4.3,6.3-4.7,9.2c-2.3,19.5,3.5,62.3,7.1,83.8c0.6,3.5,1.2,7.5,0.8,15.1c-1.1,6.3,19.7,12.4,20,5.8
	c1.4-3-5.5-10.6-6.1-13.8c-5.8-31.6,12.4-80.7,12.1-90.9c0-1.8-3.3-3.1-5.1-3.1c-4,0-3.9,6.9-3.8,9.7c0.4,12.3,19.3,66.5,21.9,81.1
	c0.5,2.7,0.4,8.3,0.9,11c1.7,9.2,22.3,7.6,20.9,1.1c-0.1-0.6-7.1-11.2-8.5-17.2c-2-8.7-4.5-17.4-4.5-36.1c0-14.1,4-43.6,4-58.4
	c0-1.5-2.2-3.6-3.7-4.1c-1.2-0.4-3.7,0.3-4.5,1.3c-1.5,1.9-1.2,7.3-0.6,9.6c2.1,7.4,15.2,21.8,22.9,20.9c32.2-3.8,43.7-51.1,44.9-60
	c0.7-5.6,3-19.2,1.1-25.3c-1-3.4-6.4-10.5-9.9-10.2c-3.2,0.3-3.9,4.2-3.5,6.1c1.6,8.7,21.6,16.4,30.1,18.9c6.7,2,21.3,0.8,27.3-2.7
	c2.3-1.3,4.1-4.8,4-7.5c-0.3-4.9-7.4-14.4-9.6-18.8c-5.2-10.5-13.8-35.4-8.7-46c2.7-5.6,14.7-13.9,26.5-13.5
	c4.5,0.1,7.7,3.7,7.9,6.2c0.7,8.6-5.8,7.8-10.2,7.1c-7.2-1.3-19.2-8.3-25.4-12.4c-0.9-2.8,8.9-15,6.8-15.5
	c-2.4-0.6-10.4,10.8-13,11.6c-2.4,0.7-4.1-4.8-13.2-5.6c-6.5-0.6-8,2.7-10.4,1.7c-3.7-1.5-10.7-11.9-12.1-10.2
	c-1.2,1.5,7.7,13.8,7.6,15.2c-0.1,3.5-19.9,9.4-27.1,9.9c-2.9,0.2-7,0.3-9.2-1.7c-3.1-2.8-0.1-8.9,3.2-10.3c7-2.9,11.4-1.5,15.5-0.1
	c3.6,1.1,9.3,7,10.7,10.4c2,4.9-1.9,8.5-3.7,10.7c-1.9,2.3-7.3,4.5-10.3,4.7c-16.3,1-50.8-13.6-63.3-12.6
	c-26.3,2.1-62.8,21.1-109.4,21.7c-45.2,0.6-67.3-26-67.3-26"/>
</svg>
