<?xml version="1.0" encoding="utf-8"?>
<!-- Generator: Adobe Illustrator 24.0.1, SVG Export Plug-In . SVG Version: 6.00 Build 0)  -->
<svg version="1.2" baseProfile="tiny" id="Celtichomeicon"
	 xmlns="http://www.w3.org/2000/svg" xmlns:xlink="http://www.w3.org/1999/xlink" x="0px" y="0px" viewBox="0 0 450 297"
	 xml:space="preserve">
<path fill="none" stroke="#FFFFFF" stroke-width="6" d="M233.6,119.4c-10.9,10.3-45.7,23.7-43.3,32.8c1.4,5.4,10.7,0.7,21.6,2.5
	c2.2,0.4-39.8,20.9-35.1,25.6c2.9,2.9,9.1,8.3,15.9,8.9c20.3,1.8,40-4,53.4-8.8c8.2-2.9,22.4-8.4,27.3-21.7c1.9-5,1.2-16.1,0-21.3
	c-2-8.2-12.3-12.8-14.4-13.9c-9.3-4.8-52.8-4.6-67.7-9.6c-14.3-4.8-24-14.6-28.1-22.6c-9.7-19-30.7-61.2-39-63.7
	c-1.6,2.9,1.2,31.7,5.1,41.4c1.5,3.7,10.4,18.4,10,14.4c-0.3-2.9-8.4-24.6-14.6-29.2c-2.6-1.9-13-4.8-12.9-2.3
	c0.1,2.4,19.9,32,21.1,44.1c2.6,27.2,17,79.8,27.7,104.7c3.4,7.9,12.3,23.2,18.4,29.3c3.2,3.3,12.9,8.2,17.2,6.6
	c3.7-1.4,6.7-9,6.3-13.5c-0.6-5.6-8.7-15.3-10.1-15.4c-2.6-0.1,0,16.5,3.5,20.3c5.5,5.9,23.4,20,25.4,33.6
	c1.3,8.8-12.9,18.7-12.9,18.7c0.7,0.9,13.1-0.8,17.4,0c3.3,0.6,9.5,3.5,12.8,4.1c4,0.7,14.7,3.7,17.1,2c1-0.7-23.5-8-21.3-13.6
	c1.2-2.9,31.3,4.2,32.2,1.6c0.2-0.6-23.2-5.1-28.5-10.5c-2.1-2.1-6-6.8-3.7-11.3c14.1-27.9,66.4-33.1,77.5-55.1
	c10.8-21.4,7.8-48.3,6.6-64.4c-1.1-14.1-10-41.2-14.1-54.7c-1.5-5.1-1.6-14.7-5.6-18.1c-1.4-1.3-7.7-4.4-8.9-3.3
	c-1.4,1.3,1.6,7,1.8,7.4c4.3,8.4,13,9.9,17.3,7.8c6.1-3,4.4-9.7,5.5-11.2c2.2-3.1,4.5-4.2,7.8-6c3.8-2,16.8,0,17.2-0.8
	c0.4-0.7-13.4-2.5-20.8-18.8c-1.6-3.6-1.3-11.8-2-15.6c-0.5-2.6-4.2-10.9-10.7-9.7c-7.4,1.4-8.4,15.8-4.9,19.3
	c1.1,1.1,3.1,0.4,3.5-1.1c1.4-4.9-6.9-15.7-11.9-17c-1.6-0.4-4.7,0.1-5.6,1.6c-2.8,4.6-0.5,21.1,2.1,23.5c1.3,1.2,4.9,1.4,5-2.2
	c0.3-5.9-11.2-15.7-17.1-15.2c-2.2,0.2-7,2-6.6,4.2c0.8,5.2,9.6,7.2,9.7,14c0.1,3.7-8.6,2.7-14.8,13.7c-6,10.5-8.4,32.3-12.1,42.5
	C249.5,103.3,235.4,118.9,233.6,119.4"/>
</svg>
