<?xml version="1.0" encoding="utf-8"?><!DOCTYPE svg PUBLIC "-//W3C//DTD SVG 1.1//EN" "http://www.w3.org/Graphics/SVG/1.1/DTD/svg11.dtd"><svg width="1812" height="9784" viewBox="0 0 1812 9784" xmlns="http://www.w3.org/2000/svg" xmlns:xlink="http://www.w3.org/1999/xlink"><svg width="44.81" height="44.75" viewBox="-10 -10 44.81 44.75" id="department-development" xmlns="http://www.w3.org/2000/svg"><path d="M18.914 23.808H.946V4.894h13.736l.956-.922-.025-.023H.946A.946.946 0 0 0 0 4.894v18.914c0 .521.423.945.946.945h17.968a.946.946 0 0 0 .945-.945V9.791l-.945.902v13.115z"/><path d="M24.059.617c-.427-.41-.898-.617-1.4-.617-.787 0-1.36.508-1.516.664-.221.219-6.489 6.477-6.489 6.477a.4.4 0 0 0-.104.18c-.17.629-1.021 3.414-1.029 3.441a.4.4 0 0 0 .38.517c.04 0 .081-.006.122-.02.028-.008 2.903-.938 3.376-1.08a.386.386 0 0 0 .166-.098c.298-.295 6.06-5.967 6.526-6.447.482-.498.722-1.016.713-1.539-.009-.515-.261-1.013-.745-1.478zm-.647 2.359c-.263.271-2.324 2.307-6.124 6.051l-.291.287c-.436.135-1.479.471-2.268.725.254-.838.559-1.852.695-2.33.812-.813 6.182-6.174 6.386-6.375.04-.039.402-.387.849-.387.253 0 .498.113.746.352.296.285.449.559.453.814.005.262-.145.553-.446.863zM15.84 16.953H8.038a.473.473 0 1 0 0 .946h7.802a.474.474 0 0 0 0-.946zM15.84 20.734H8.038a.472.472 0 1 0 0 .946h7.802a.472.472 0 1 0 0-.946zM15.84 13.169H8.038a.473.473 0 1 0 0 .946h7.802a.474.474 0 0 0 0-.946zM3.8 14.658h.912a.56.56 0 0 0 .558-.561v-.912a.56.56 0 0 0-.558-.559H3.8a.56.56 0 0 0-.559.559v.912c0 .309.251.561.559.561zm-.204-1.473c0-.111.091-.203.204-.203h.912c.112 0 .204.092.204.203v.912a.205.205 0 0 1-.204.205H3.8a.204.204 0 0 1-.204-.205v-.912zM3.8 20.193a.56.56 0 0 0-.559.559v.912a.56.56 0 0 0 .559.559h.912c.308 0 .558-.25.558-.559v-.912a.558.558 0 0 0-.558-.559H3.8zm1.116.558v.912a.203.203 0 0 1-.204.203H3.8a.203.203 0 0 1-.204-.203v-.912c0-.111.091-.203.204-.203h.912c.112 0 .204.092.204.203zM5.454 15.979a.405.405 0 0 0-.551.085l-.944 1.29-.389-.388a.404.404 0 0 0-.555-.003.396.396 0 0 0-.003.559l.696.694.07.075.231.053.024-.001a.335.335 0 0 0 .137-.041l1.369-1.773a.395.395 0 0 0-.085-.55z"/></svg><svg width="40.2" height="40.2" viewBox="-10 -10 40.2 40.2" id="department-finance" y="45" xmlns="http://www.w3.org/2000/svg"><path d="M18.934 0H1.262C.568 0 0 .569 0 1.263v17.675c0 .694.568 1.262 1.262 1.262h17.672c.693 0 1.262-.568 1.262-1.262V1.263A1.268 1.268 0 0 0 18.934 0m0 18.938H1.262V1.263h17.672v17.675zM4.418 6.95H5.68v1.263a.632.632 0 0 0 1.262 0V6.95h1.264a.631.631 0 1 0 0-1.262H6.941V4.426a.631.631 0 1 0-1.261 0v1.262H4.418a.63.63 0 1 0 0 1.262m4.125 4.711a.633.633 0 0 0-.893 0L6.311 13l-1.338-1.339a.633.633 0 0 0-.893.893l1.338 1.339-1.338 1.338a.633.633 0 0 0 .893.893l1.338-1.339 1.34 1.339a.633.633 0 0 0 .893-.893l-1.34-1.338 1.34-1.339a.633.633 0 0 0-.001-.893M11.99 6.95h3.787a.63.63 0 1 0 0-1.262H11.99a.632.632 0 0 0 0 1.262m0 6.311h3.787a.63.63 0 1 0 0-1.262H11.99a.632.632 0 0 0 0 1.262m0 2.525h3.787a.63.63 0 1 0 0-1.262H11.99a.631.631 0 1 0 0 1.262"/></svg><svg width="39.87" height="39.87" viewBox="-10 -10 39.87 39.87" id="department-hr" y="86" xmlns="http://www.w3.org/2000/svg"><path d="M18.628 15.575l-5.404-2.563c.721-.361 3.537-.476 3.769-1.111 0 0-1.112-1.708-1.384-3.927-.105-.861-.286-1.99-.466-3.581C14.852 1.812 12.682 0 9.94 0h-.01C7.188 0 5.017 1.812 4.726 4.393c-.179 1.591-.36 2.72-.466 3.581-.271 2.219-1.384 3.927-1.384 3.927.233.635 3.048.75 3.769 1.111l-5.404 2.563S0 16.01 0 17.039v1.64c0 .687.556 1.19 1.241 1.19h17.387c.686 0 1.241-.503 1.241-1.19v-1.64c0-1.029-1.241-1.464-1.241-1.464M1.242 18.627v-1.588c0-.066.235-.225.426-.298a.809.809 0 0 0 .105-.045l5.404-2.562a1.242 1.242 0 0 0 .025-2.233c-.421-.211-.977-.316-1.848-.467-.207-.036-.49-.087-.764-.142.356-.797.749-1.913.903-3.174.038-.315.087-.668.142-1.06.094-.666.21-1.511.325-2.526.216-1.919 1.849-3.291 3.97-3.291h.01c2.121 0 3.753 1.372 3.969 3.291a90.24 90.24 0 0 0 .325 2.526c.055.392.104.745.142 1.06.155 1.261.548 2.377.903 3.174-.274.055-.556.106-.763.142-.872.151-1.428.256-1.848.467a1.243 1.243 0 0 0 .024 2.233l5.404 2.562a.822.822 0 0 0 .106.045c.191.073.398.232.425.298l.001 1.588H1.242z"/></svg><svg width="38.49" height="38.49" viewBox="-10 -10 38.49 38.49" id="department-maintenance" y="126" xmlns="http://www.w3.org/2000/svg"><path d="M17.346 7.496l-1.484-.329a6.71 6.71 0 0 0-.44-1.064l.802-1.337c.3-.479.451-1.183 0-1.635l-.817-.817c-.451-.451-1.213-.37-1.673-.051l-1.301.829a6.982 6.982 0 0 0-1.057-.444l-.333-1.501C10.944.596 10.462 0 9.824 0H8.668C8.03 0 7.639.605 7.512 1.156l-.37 1.483a6.906 6.906 0 0 0-1.126.474l-1.333-.85c-.46-.319-1.222-.4-1.673.051l-.818.817c-.451.452-.3 1.156 0 1.635l.845 1.407a6.867 6.867 0 0 0-.408.994l-1.482.329C.596 7.595 0 8.077 0 8.715v1.156c0 .638.605 1.029 1.156 1.156l1.501.375c.104.318.234.624.381.92l-.846 1.409c-.299.478-.451 1.183 0 1.634l.818.817c.451.452 1.213.371 1.673.052l1.336-.852a6.9 6.9 0 0 0 1.133.476l.369 1.479c.127.551.518 1.156 1.156 1.156h1.156c.638 0 1.12-.596 1.219-1.147l.334-1.505a6.809 6.809 0 0 0 1.044-.438l1.304.831c.46.319 1.222.4 1.673-.052l.817-.817c.451-.451.3-1.156 0-1.634l-.803-1.339c.162-.317.301-.647.414-.99l1.502-.375c.55-.127 1.155-.518 1.155-1.156V8.715c0-.638-.596-1.12-1.146-1.219m-.009 2.293a.763.763 0 0 1-.259.111l-2.143.535-.198.607c-.09.274-.206.552-.346.826l-.29.57 1.132 1.888a.796.796 0 0 1 .116.28l-.76.759a.875.875 0 0 1-.197-.081l-1.902-1.213-.591.305a5.692 5.692 0 0 1-.869.365l-.63.204-.476 2.151a.44.44 0 0 1-.126.241h-1.04a.767.767 0 0 1-.11-.258l-.532-2.128-.616-.195a5.655 5.655 0 0 1-.941-.396l-.595-.314-1.902 1.213a.434.434 0 0 1-.237.083l-.758-.738a.785.785 0 0 1 .105-.26l1.182-1.969-.281-.566a5.694 5.694 0 0 1-.317-.766l-.198-.607-2.122-.531a.814.814 0 0 1-.28-.115V8.715l.002.001c.02 0 .114-.068.194-.083l2.18-.482.2-.637c.082-.26.193-.53.34-.827l.281-.567-1.17-1.949a.824.824 0 0 1-.116-.28l.76-.759a.827.827 0 0 1 .196.081l1.938 1.235.594-.313c.305-.161.62-.293.937-.394l.615-.196.527-2.109a.844.844 0 0 1 .115-.28h1.075c-.008.012.067.113.082.196l.485 2.193.629.203c.296.096.592.22.88.37l.592.307 1.863-1.187a.43.43 0 0 1 .236-.083l.758.737a.76.76 0 0 1-.104.261l-1.144 1.905.291.571c.158.308.278.597.367.883l.2.638 2.136.474c.129.024.23.099.251.14l-.009 1.025zM9.254 5.774a3.481 3.481 0 0 0-3.481 3.473 3.481 3.481 0 0 0 6.962 0 3.481 3.481 0 0 0-3.481-3.473m-.008 5.784a2.314 2.314 0 0 1-2.312-2.311c0-1.275 1.037-2.312 2.312-2.312s2.312 1.037 2.312 2.312a2.314 2.314 0 0 1-2.312 2.311"/></svg><svg width="44.86" height="45.25" viewBox="-10 -10 44.86 45.25" id="department-management" y="165" xmlns="http://www.w3.org/2000/svg"><path d="M21.117 17.384a2.534 2.534 0 0 0-2.531 2.531c0 .473.139.912.365 1.291a8.17 8.17 0 0 1-7.512 2.637 8.157 8.157 0 0 1-3.754-1.729h.207a.642.642 0 1 0 0-1.284H6.184a.64.64 0 0 0-.698.574l-.002.002c-.002.018-.002.037-.002.055v.012l-.002 1.769a.643.643 0 1 0 1.286 0v-.223a9.45 9.45 0 0 0 6.078 2.231 9.461 9.461 0 0 0 7.024-3.144c.37.212.793.343 1.249.343a2.534 2.534 0 0 0 2.531-2.533 2.534 2.534 0 0 0-2.531-2.532zm0 4.065a1.533 1.533 0 0 1 0-3.064 1.533 1.533 0 0 1 0 3.064zM24.777 13.712a.643.643 0 0 0-.877-.236l-.211.123a9.358 9.358 0 0 0-1.536-7.182 9.35 9.35 0 0 0-6.043-3.866l.002-.019A2.532 2.532 0 0 0 13.584 0a2.535 2.535 0 0 0-2.533 2.533 2.534 2.534 0 0 0 2.533 2.531 2.52 2.52 0 0 0 2.189-1.287c.026.008.047.024.075.029a8.083 8.083 0 0 1 5.256 3.35 8.076 8.076 0 0 1 1.352 6.07l-.094-.162a.641.641 0 1 0-1.111.643l.885 1.533a.647.647 0 0 0 .555.32.624.624 0 0 0 .322-.088l1.531-.883a.642.642 0 0 0 .233-.877zM13.584 4.064a1.534 1.534 0 0 1-1.533-1.531c0-.845.688-1.533 1.533-1.533a1.533 1.533 0 0 1 0 3.064zM3.332 14.625a2.454 2.454 0 0 0-1.298-.059c-.005-.023-.002-.046-.01-.069a8.109 8.109 0 0 1-.366-4.197 8.17 8.17 0 0 1 5.266-6.25l-.127.219a.642.642 0 1 0 1.111.643l.885-1.532a.646.646 0 0 0-.234-.877l-1.534-.884a.642.642 0 1 0-.642 1.111l.16.092a9.458 9.458 0 0 0-6.148 7.254 9.388 9.388 0 0 0 .424 4.861c.022.063.055.12.093.17-.35.291-.631.668-.78 1.119a2.535 2.535 0 0 0 2.401 3.333 2.526 2.526 0 0 0 2.401-1.733 2.513 2.513 0 0 0-.137-1.933 2.515 2.515 0 0 0-1.465-1.268zm.652 2.885a1.557 1.557 0 0 1-1.936.97 1.534 1.534 0 0 1-.969-1.938 1.527 1.527 0 0 1 1.936-.968c.388.129.703.401.886.767s.213.78.083 1.169z"/></svg><svg width="41.09" height="41.48" viewBox="-10 -10 41.09 41.48" id="department-marketing" y="211" xmlns="http://www.w3.org/2000/svg"><path d="M21.056 3.097c-.17-.658-.964-1.007-1.797-1.286l-.092-.031-.039-.091C18.763.854 18.289 0 17.532 0c-.308 0-.597.145-.858.43L13.37 4.036a1.888 1.888 0 0 0-.34 2.034l.492 1.131-4.9 5.349a.5.5 0 1 0 .738.676l4.901-5.35 1.169.392a1.9 1.9 0 0 0 1.996-.515l3.305-3.609c.383-.42.388-.801.325-1.047zm-6.95 1.616l3.305-3.607c.071-.077.118-.103.111-.106.024.007.254.095.686 1.085l-3.949 4.31-.314-.725a.888.888 0 0 1 .161-.957zm5.886-1.244l-3.305 3.608a.904.904 0 0 1-.941.243l-.748-.25 3.317-3.622.482-.526.148-.162c1.025.344 1.134.564 1.141.569-.002.014-.023.063-.094.14z"/><path d="M9.167 6.694c.471 0 .924.064 1.361.174v-.829a6.424 6.424 0 1 0 5.063 6.276c0-.34-.035-.671-.086-.997h-.811c.057.324.094.656.094.997 0 3.099-2.521 5.633-5.621 5.633s-5.621-2.534-5.621-5.633c0-3.1 2.521-5.621 5.621-5.621z"/><path d="M17.118 11.318c.041.327.07.658.07.997 0 4.422-3.6 8.038-8.021 8.038s-8.02-3.616-8.02-8.038c0-4.423 3.598-8.021 8.02-8.021.465 0 .918.048 1.361.125V3.26a9.255 9.255 0 0 0-1.361-.112 9.166 9.166 0 0 0-9.166 9.167 9.166 9.166 0 0 0 18.332 0c0-.338-.02-.669-.057-.997h-1.158z"/></svg><svg width="39.86" height="39.61" viewBox="-10 -10 39.86 39.61" id="department-operations" y="253" xmlns="http://www.w3.org/2000/svg"><path d="M1.407 8.767a8.176 8.176 0 0 1 5.268-6.25l-.129.22a.644.644 0 0 0 .557.963.64.64 0 0 0 .555-.321l.885-1.531a.638.638 0 0 0 .063-.487.631.631 0 0 0-.299-.39L6.776.086a.643.643 0 0 0-.642 1.111l.16.093a9.464 9.464 0 0 0-6.15 7.254 9.433 9.433 0 0 0 .424 4.861.643.643 0 0 0 1.208-.44 8.123 8.123 0 0 1-.369-4.198M16.571 15.337a.642.642 0 0 0-.904.078A8.173 8.173 0 0 1 8.013 18.2a8.155 8.155 0 0 1-3.754-1.728h.207a.642.642 0 1 0 0-1.283H2.757a.64.64 0 0 0-.698.574l-.002.002c-.002.018-.002.037-.002.055v.01l-.002 1.769a.642.642 0 0 0 1.286 0v-.223a9.45 9.45 0 0 0 4.451 2.088 9.465 9.465 0 0 0 8.859-3.223.64.64 0 0 0-.078-.904M19.772 12.066a.643.643 0 0 0-.877-.235l-.211.122a9.358 9.358 0 0 0-1.536-7.181A9.362 9.362 0 0 0 11.064.896a.642.642 0 0 0-.224 1.264 8.092 8.092 0 0 1 5.258 3.349 8.097 8.097 0 0 1 1.352 6.072l-.094-.163a.643.643 0 0 0-1.113.642l.885 1.533a.65.65 0 0 0 .557.321c.111 0 .223-.03.32-.087l1.533-.884a.64.64 0 0 0 .234-.877"/></svg><svg width="37.44" height="36.98" viewBox="-10 -10 37.44 36.98" id="department-purchase" y="293" xmlns="http://www.w3.org/2000/svg"><path d="M17.341 4.589a.547.547 0 0 0-.446-.231H5.271l-.88-3.034C4.046.129 3.226 0 2.89 0H.544a.543.543 0 1 0 0 1.088H2.89c.074 0 .3 0 .455.533l3.027 11.125c.066.235.28.397.524.397h7.393c.23 0 .435-.144.512-.36l2.606-7.697a.546.546 0 0 0-.066-.497m-3.435 7.466H7.308L5.577 5.446h10.545l-2.216 6.609zm-1.078 2.19a1.37 1.37 0 1 0-.001 2.739 1.37 1.37 0 0 0 .001-2.739m-4.93 0a1.37 1.37 0 1 0 0 2.738 1.37 1.37 0 0 0 0-2.738"/></svg><svg width="38.33" height="38.33" viewBox="-10 -10 38.33 38.33" id="department-quality" y="330" xmlns="http://www.w3.org/2000/svg"><path d="M9.167 0A9.166 9.166 0 0 0 .001 9.166c0 5.063 4.104 9.166 9.166 9.166s9.166-4.103 9.166-9.166A9.166 9.166 0 0 0 9.167 0m0 17.204c-4.424 0-8.021-3.615-8.021-8.038s3.598-8.021 8.021-8.021c4.422 0 8.02 3.598 8.02 8.021s-3.598 8.038-8.02 8.038m3.658-11.392l-5.379 5.412-2.422-2.422a.573.573 0 0 0-.811.81l2.836 2.836a.575.575 0 0 0 .811 0c.014-.014.018-.031.029-.045l5.746-5.781a.574.574 0 0 0-.81-.81"/></svg><svg width="35.04" height="41.8" viewBox="-10 -10 35.04 41.8" id="department-research" y="369" xmlns="http://www.w3.org/2000/svg"><path d="M7.518 0C3.302 0 0 3.43 0 7.646c0 3.176 1.56 4.689 2.793 5.793.794.712 1.328 1.14 1.328 1.668v1.155c0 .03.012.058.016.088h-.023v1.972c0 2.08 1.345 3.478 3.428 3.478 2.012 0 3.384-1.398 3.384-3.478V16.35h-.029c.004-.03.019-.057.019-.088v-1.155c0-.804.596-1.29 1.501-2.08 1.224-1.069 2.619-2.399 2.619-5.381C15.036 3.43 11.734 0 7.518 0m-.026 20.438c-1.275 0-2.016-.791-2.016-2.116l-.01-.91c.491.169 1.157.301 2.052.301.886 0 1.55-.144 2.046-.318v.927c0 1.345-.751 2.116-2.072 2.116m4.029-8.437c-.925.808-1.968 1.644-1.968 3.106v.861c-.323.181-.919.395-2.046.395-1.183 0-1.744-.21-2.024-.372v-.884c0-1.162-.908-1.901-1.781-2.683-1.157-1.036-2.339-2.21-2.339-4.778 0-3.465 2.691-6.284 6.155-6.284 3.465 0 6.156 2.819 6.156 6.284 0 2.363-1.032 3.376-2.153 4.355"/></svg><svg width="48.5" height="36.03" viewBox="-10 -10 48.5 36.03" id="department-sales" y="411" xmlns="http://www.w3.org/2000/svg"><path d="M26.277 0c-1.23 0-2.227.997-2.227 2.227 0 .252.051.491.129.717L18.75 7.618a2.208 2.208 0 0 0-1.381-.492c-.605 0-1.152.243-1.553.635l-4.252-2.129A2.22 2.22 0 1 0 7.34 6.729l-4.336 4.998a2.208 2.208 0 0 0-.777-.147 2.227 2.227 0 1 0 2.061 1.39l4.405-5.064c.21.066.429.111.66.111.648 0 1.226-.282 1.633-.724l4.159 2.086a2.226 2.226 0 0 0 4.451-.026c0-.04-.009-.077-.011-.116l5.792-4.976c.276.122.579.193.9.193a2.227 2.227 0 1 0 0-4.454"/></svg><svg width="44.62" height="39.96" viewBox="-10 -10 44.62 39.96" id="department-supply" y="448" xmlns="http://www.w3.org/2000/svg"><path d="M13.396 15.3H1.902A1.905 1.905 0 0 1 0 13.398V1.903C0 .854.854 0 1.902 0h11.494c1.051 0 1.902.854 1.902 1.903v11.495a1.903 1.903 0 0 1-1.902 1.902M1.902 1.325a.579.579 0 0 0-.578.578v11.495c0 .318.26.577.578.577h11.494a.579.579 0 0 0 .578-.577V1.903a.579.579 0 0 0-.578-.578H1.902zM22.713 15.3h-5.746a.663.663 0 0 1 0-1.325h5.746c.32 0 .578-.259.578-.577V8.719a.566.566 0 0 0-.061-.258L21.375 4.75a.574.574 0 0 0-.516-.319h-1.877a.577.577 0 0 0-.576.578v4.97a.663.663 0 0 1-1.326 0v-4.97c0-1.049.854-1.903 1.902-1.903h1.877a1.89 1.89 0 0 1 1.701 1.052l1.855 3.711c.131.263.201.557.201.85v4.679a1.903 1.903 0 0 1-1.903 1.902M20.848 19.958a2.994 2.994 0 0 1-2.99-2.991.663.663 0 1 1 1.324 0 1.668 1.668 0 0 0 3.334 0 .662.662 0 1 1 1.324 0 2.995 2.995 0 0 1-2.992 2.991M6.098 19.958a2.995 2.995 0 0 1-2.992-2.991.663.663 0 1 1 1.324 0 1.668 1.668 0 0 0 3.334 0 .663.663 0 1 1 1.324 0 2.994 2.994 0 0 1-2.99 2.991"/></svg><svg preserveAspectRatio="xMidYMid" width="27" height="32" viewBox="-10 -10 27 32" id="ico-arrow-blue" y="488" xmlns="http://www.w3.org/2000/svg"><defs><style>.amcls-1{stroke:#00408f;stroke-width:1px;fill:none;fill-rule:evenodd}</style></defs><path d="M1.44 11.498l4.611-4.809-4.611-4.81" class="amcls-1"/></svg><svg width="28" height="25" viewBox="-10 -10 28 25" id="ico-arrow-down" y="520" xmlns="http://www.w3.org/2000/svg"><path d="M4 5L0 0h8z"/></svg><svg width="41.93" height="33.8" viewBox="-10 -10 41.93 33.8" id="ico-arrow-down-thin" y="545" xmlns="http://www.w3.org/2000/svg"><path fill="#273690" d="M21.934 2.829L19.107 0l-8.14 8.139L2.829 0 0 2.829l10.967 10.965.001.001z"/></svg><svg width="32.01" height="34.89" viewBox="-10 -10 32.01 34.89" id="ico-arrow-left-double" y="579" xmlns="http://www.w3.org/2000/svg"><path fill="#010102" d="M11.285 14.893l.723-1.062-6.246-6.385 6.246-6.384L11.285 0 4 7.446l7.285 7.447z"/><path fill="#010102" d="M7.285 14.893l.723-1.062-6.246-6.385 6.246-6.384L7.285 0 0 7.446l7.285 7.447z"/></svg><svg width="28.01" height="34.89" viewBox="-10 -10 28.01 34.89" id="ico-arrow-left-single" y="614" xmlns="http://www.w3.org/2000/svg"><path fill="#010102" d="M7.285 14.893l.723-1.062-6.246-6.385 6.246-6.384L7.285 0 0 7.446l7.285 7.447z"/></svg><svg width="48.67" height="76.02" viewBox="-19.98 -31.84 48.67 76.02" id="ico-arrow-left-single-thin" y="649" xmlns="http://www.w3.org/2000/svg"><path d="M-9.945 6.176l-.02-.02 27.947-28 .707.706L-8.583 6.186l27.272 27.282-.707.707L-9.976 6.206z"/></svg><svg width="25" height="28" viewBox="-8.5 -11.5 25 28" id="ico-arrow-right" y="726" xmlns="http://www.w3.org/2000/svg"><path d="M6.5 2.5l-5 4v-8z"/></svg><svg width="32.01" height="34.89" viewBox="-10 -10 32.01 34.89" id="ico-arrow-right-double" y="754" xmlns="http://www.w3.org/2000/svg"><path fill="#010102" d="M.723 14.893L0 13.831l6.246-6.385L0 1.062.723 0l7.285 7.446-7.285 7.447z"/><path fill="#010102" d="M4.723 14.893L4 13.831l6.246-6.385L4 1.062 4.723 0l7.285 7.446-7.285 7.447z"/></svg><svg width="28.01" height="34.89" viewBox="-10 -10 28.01 34.89" id="ico-arrow-right-single" y="789" xmlns="http://www.w3.org/2000/svg"><path fill="#010102" d="M.723 14.893L0 13.831l6.246-6.385L0 1.062.723 0l7.285 7.446-7.285 7.447z"/></svg><svg width="48.67" height="76.02" viewBox="-19.98 -31.84 48.67 76.02" id="ico-arrow-right-single-thin" y="824" xmlns="http://www.w3.org/2000/svg"><path d="M18.66 6.176l.02-.02-27.947-28-.708.706L17.298 6.186-9.975 33.468l.707.707L18.69 6.206z"/></svg><svg preserveAspectRatio="xMidYMid" width="28" height="34" viewBox="-10 -10 28 34" id="ico-arrow-right-thin" y="901" xmlns="http://www.w3.org/2000/svg"><defs><style>.awcls-1{stroke:#007c28;stroke-width:1px;fill:none;fill-rule:evenodd}</style></defs><path d="M1 11.999l5.001-5L1 1.998" class="awcls-1"/></svg><svg preserveAspectRatio="xMidYMid" width="37" height="37" viewBox="-10 -10 37 37" id="ico-calendar" y="935" xmlns="http://www.w3.org/2000/svg"><defs><style>.axcls-1{fill:#2e8a17;fill-rule:evenodd}</style></defs><path d="M16.203 17H.797A.797.797 0 0 1 0 16.203V2.922c0-.441.357-.797.797-.797h1.594v.797a1.859 1.859 0 1 0 3.718 0v-.797h4.782v.797a1.859 1.859 0 1 0 3.718 0v-.797h1.594c.44 0 .797.356.797.797v13.281c0 .44-.357.797-.797.797zm-.297-11.125H1.094v10.031h14.812V5.875zM12.75 3.719a.797.797 0 0 1-.797-.797V.797a.797.797 0 1 1 1.594 0v2.125c0 .44-.357.797-.797.797zm-8.5 0a.797.797 0 0 1-.797-.797V.797a.797.797 0 1 1 1.594 0v2.125c0 .44-.357.797-.797.797z" class="axcls-1"/></svg><svg width="88.06" height="61.74" viewBox="-10 -10 88.06 61.74" id="ico-cattle" y="972" xmlns="http://www.w3.org/2000/svg"><path d="M46.659 41.742c-.505 0-.996-.203-1.352-.558a1.943 1.943 0 0 1-.562-1.355c-.002-.054-.047-1.808.173-3.299-.101-2.37-.399-5.468-.563-6.964-1.515.348-4.171.682-7.609-.004-2.489-.496-5.569-1.386-8.045-2.1-.935-.27-1.768-.511-2.421-.687-.69.906-1.425 1.457-2.032 1.912-.6.45-1.033.773-1.236 1.27-.277.84-.355 1.213-.446 2.833-.021.377-.096.914-.181 1.504-.14.98-.352 2.461-.194 2.994.273.955.542 1.78.586 1.906l.012.035a1.93 1.93 0 0 1-.261 1.715 1.927 1.927 0 0 1-1.555.796h-2.326a1.906 1.906 0 0 1-1.856-1.45l-1.235-4.94-.008-.036-.031-.129c-.799-3.316-1.245-6.056-1.254-7.713-.001-.352-.136-1.095-.292-1.956-.357-1.971-.847-4.667-.633-7.098a.8.8 0 0 1 1.594.14c-.195 2.217.273 4.792.614 6.671.184 1.013.317 1.745.318 2.234.009 1.535.439 4.146 1.21 7.346.015.06.026.109.034.151h.002l1.234 4.944a.31.31 0 0 0 .304.236h2.326c.101 0 .196-.05.255-.131a.322.322 0 0 0 .041-.281c-.119-.291-.287-.845-.616-1.995-.235-.798-.087-2.023.147-3.666.076-.536.147-1.024.167-1.367.099-1.763.199-2.26.544-3.3.39-.955 1.063-1.459 1.775-1.994.669-.501 1.361-1.02 1.987-1.982a.8.8 0 0 1 .864-.34c.714.179 1.773.483 3.006.839 2.446.707 5.491 1.585 7.914 2.067 3.938.784 6.699.127 7.703-.191a.843.843 0 0 1 .667.068.818.818 0 0 1 .396.527c.069.349.566 4.954.695 8.144a.787.787 0 0 1-.009.154c-.211 1.366-.167 3.095-.167 3.112 0 .103.036.187.095.245.056.056.138.09.218.09l1.805-.002c.09 0 .163-.029.223-.091a.297.297 0 0 0 .091-.223V36.2c0-.036.002-.072.007-.108l1.104-8.13a.803.803 0 0 1 .461-.621c.332-.15.661-.569 1.077-1.102.413-.526.925-1.181 1.667-1.871.898-.834 1.578-2.58 2.177-4.12.143-.365.28-.72.417-1.052a.8.8 0 0 1 1.481.608c-.134.323-.268.668-.405 1.024-.661 1.701-1.411 3.628-2.579 4.712-.648.604-1.099 1.178-1.496 1.686-.417.532-.79 1.008-1.266 1.338l-1.045 7.689v3.572c0 .514-.199.995-.561 1.355-.358.358-.84.557-1.353.557l-1.802.005zM.852 31.216a.797.797 0 0 1-.799-.542c-.236-.688.366-.99.898-1.257.414-.208 1.221-.61 1.796-1.026.183-.16.372-.338.566-.531a.817.817 0 0 1 .151-.154 15.048 15.048 0 0 0 1.574-1.934c1.174-1.703 3.878-7.12 5.853-11.075 1.048-2.1 1.953-3.913 2.457-4.834 1.636-2.996 5.163-4.073 7.917-4.083 2.178-.013 3.324.229 4.565.478.284.057.573.115.88.17 1.603.29 3.972.586 9.395.586h.065c7.129 0 13.124-.552 16.048-1.477.224-.066.498-.177.821-.305.96-.38 2.412-.955 3.915-1.054 1.411-.025 3.231-1.681 3.644-3.282.18-.704.626-.859.876-.889.259-.029.741.022 1.107.715.536 1.013 1.137 4.229-.557 6.178a2.787 2.787 0 0 0-.11.116 306.051 306.051 0 0 1 2.816 3.113c.308.347.653.699.997 1.051 1.042 1.064 2.027 2.07 2.271 3.113.324 1.382-.815 3.009-1.072 3.353-.548.901-2.11.7-2.771.57-.02-.004-.336-.068-.854-.135a16.469 16.469 0 0 0-2.012-.138h-.153c-4.959 0-6.449-2.677-6.896-4.277a.8.8 0 0 1 1.54-.431c.576 2.062 2.378 3.107 5.354 3.107h.157a18.155 18.155 0 0 1 3.182.304c.444.089.96.095 1.167.045.4-.529.92-1.523.8-2.034-.143-.608-1.053-1.539-1.856-2.359-.363-.371-.729-.744-1.053-1.109-.984-1.113-3.057-3.388-3.247-3.575-.188-.146-.275-.344-.284-.581s.112-.443.289-.602c.07-.064.165-.178.258-.285.119-.138.236-.271.32-.352.672-.776.75-2.039.635-3.019-1.021 1.673-2.859 2.97-4.483 2.998-1.213.081-2.473.579-3.392.943-.376.149-.697.274-.941.347-3.056.967-9.233 1.546-16.517 1.546h-.065c-5.549 0-8.007-.309-9.68-.612a51.372 51.372 0 0 1-.908-.176c-1.21-.242-2.293-.451-4.247-.447-2.296.008-5.215.866-6.517 3.25-.489.896-1.389 2.696-2.43 4.782-2.106 4.221-4.729 9.473-5.966 11.269a16.856 16.856 0 0 1-1.847 2.251c-.184.229-.42.447-.688.653-1.057.935-2.024 1.47-2.689 1.604a1.214 1.214 0 0 1-.28.033"/><path d="M26.639 32.99c-1.019 0-1.902-.259-2.468-.744a.8.8 0 0 1 1.04-1.216c.319.272 1.127.469 2.222.294 1.184-.19 2.215-.753 2.626-1.434a.8.8 0 1 1 1.37.828c-.664 1.099-2.062 1.915-3.742 2.186-.36.058-.711.086-1.048.086"/></svg><svg preserveAspectRatio="xMidYMid" width="43" height="38" viewBox="-10 -10 43 38" id="ico-checked" y="1034" xmlns="http://www.w3.org/2000/svg"><defs><style>.azcls-1{fill:#fff;fill-rule:evenodd}</style></defs><path d="M0 10l9 8L23 3l-3-3L9 12 3 6l-3 4z" class="azcls-1"/></svg><svg width="110" height="110" viewBox="-10 -10 110 110" id="ico-clock" y="1072" xmlns="http://www.w3.org/2000/svg"><path d="M45 6c21.505 0 39 17.495 39 39S66.505 84 45 84 6 66.505 6 45 23.495 6 45 6m0-6C20.1 0 0 20.1 0 45s20.1 45 45 45 45-20.1 45-45S69.9 0 45 0"/><path d="M59.136 47.804H42V26.6a3 3 0 1 1 6 0v15.204h11.136a3 3 0 1 1 0 6z"/></svg><svg width="33.04" height="33.04" viewBox="-10 -10 33.04 33.04" id="ico-close" y="1182" xmlns="http://www.w3.org/2000/svg"><path fill="#19418F" d="M13.037 1.06L11.977 0 6.518 5.459 1.061.001 0 1.061l5.458 5.458L0 11.977l1.06 1.06 5.458-5.458 5.46 5.46 1.059-1.061-5.459-5.459z"/></svg><svg width="33.04" height="33.04" viewBox="-10 -10 33.04 33.04" id="ico-close-green" y="1216" xmlns="http://www.w3.org/2000/svg"><g fill="#2A8A29"><path d="M13.037 1.06L1.06 13.037 0 11.977 11.977 0z"/><path d="M1.06 0l11.978 11.978-1.06 1.06L.001 1.061z"/></g></svg><svg width="35.04" height="40.94" viewBox="-10 -10 35.04 40.94" id="ico-document" y="1250" xmlns="http://www.w3.org/2000/svg"><path d="M15.041 20.941H0V0h7.957l7.084 6.616v14.325zM1 19.941h13.041V7.05L7.563 1H1v18.941z"/><path d="M7.03.5h1v7.005h-1z"/><path d="M7.025 7.005h7.516v1H7.025z"/></svg><svg width="492.31" height="492.31" viewBox="-10 -10 492.31 492.31" id="ico-external-link" y="1291" xmlns="http://www.w3.org/2000/svg"><path d="M448.728 23.585c-31.442-31.444-82.611-31.444-114.062 0l-86.146 86.152c-24.64 24.637-29.974 61.401-15.983 91.284l-31.524 31.524c-29.882-13.992-66.64-8.663-91.284 15.984l-86.146 86.142c-31.445 31.441-31.445 82.61 0 114.057 31.445 31.447 82.616 31.442 114.061.005l86.141-86.146c25.71-25.713 30.389-64.592 14.076-95.109l29.609-29.613c30.518 16.312 69.407 11.633 95.11-14.072l86.151-86.14c31.444-31.44 31.444-82.617-.003-114.068zM197.474 336.262l-86.147 86.15c-16.926 16.927-44.479 16.927-61.412-.004-16.932-16.938-16.932-44.487-.014-61.417l86.146-86.147c9.595-9.593 22.589-13.735 35.128-12.466l-22.997 22.993c-9.892 9.901-9.892 26.004 0 35.896 9.903 9.894 26.007 9.894 35.896 0l25.056-25.062c3.057 13.999-.802 29.211-11.656 40.057zm224.93-224.932l-86.146 86.146c-10.861 10.859-26.056 14.72-40.049 11.659l15.492-15.487c9.894-9.896 9.894-26-.005-35.89-9.901-9.894-25.997-9.894-35.887 0l-13.424 13.419c-1.274-12.534 2.873-25.532 12.462-35.122l86.146-86.146c16.923-16.925 44.479-16.925 61.418.008 16.932 16.933 16.932 44.479-.007 61.413z"/></svg><svg width="83.27" height="82.67" viewBox="-10 -10 83.27 82.67" id="ico-external-outline" y="1784" xmlns="http://www.w3.org/2000/svg"><path d="M56 58.671H4v-40h16.1l4.044-3.896-.103-.104H4a4 4 0 0 0-4 4v40a4 4 0 0 0 4 4h52a4 4 0 0 0 4-4V27.38l-4 3.819v27.472zm-39.481-16h4.03c2.803-15.905 16.658-28 33.368-28 .7 0 1.366.006 2.039.011l-7.328 7.327a2 2 0 1 0 2.829 2.828L63.27 12.712 51.457.586a2 2 0 0 0-2.829 2.828l7.26 7.26c-.626-.001-1.248-.003-1.888-.003-18.94 0-34.598 13.872-37.481 32"/></svg><svg width="36.19" height="51.17" viewBox="-10 -10 36.19 51.17" id="ico-facebook" y="1867" xmlns="http://www.w3.org/2000/svg"><path fill="#43619C" d="M10.506 31.167V16.95h4.771l.715-5.54h-5.486V7.873c0-1.604.445-2.698 2.746-2.698l2.933-.001V.219C15.678.151 13.937 0 11.911 0 7.68 0 4.784 2.582 4.784 7.324v4.086H0v5.54h4.784v14.217h5.722z"/></svg><svg width="84.01" height="83.94" viewBox="-10 -10 84.01 83.94" id="ico-fax-outline" y="1919" xmlns="http://www.w3.org/2000/svg"><path d="M59.549 15.903h-7.545V0H12.002v15.903H4.458C2 15.903 0 17.903 0 20.362V47.48c0 2.459 2 4.459 4.457 4.459h7.544v12h40.002v-12h7.545c2.457 0 4.457-2 4.457-4.459V20.362a4.462 4.462 0 0 0-4.456-4.459zM16.002 3.938h32.001v11.965H16.002V3.938zm32.002 56.001H16.002v-9.995-.005-12.025h32.002v22.025zM60.006 47.48a.457.457 0 0 1-.457.459h-7.545V33.916H12.002v14.023H4.458A.458.458 0 0 1 4 47.48V20.362c0-.254.205-.459.457-.459h55.091c.253 0 .457.205.457.459V47.48z"/><path d="M52.003 23.935h-2a2 2 0 0 0 0 4h2a2 2 0 1 0 0-4z"/></svg><svg width="60.92" height="57.58" viewBox="-10 -10 60.92 57.58" id="ico-filter" y="2003" xmlns="http://www.w3.org/2000/svg"><path fill="#3A82BA" d="M15.681 37.578L15.377 18.8 0 0h40.923l-16.39 18.852.011 13.761-8.863 4.965zM4.22 2l13.146 16.073.26 16.123 4.918-2.754-.011-13.336L36.534 2H4.22z"/></svg><svg width="110" height="110" viewBox="-10 -10 110 110" id="ico-globe" y="2061" xmlns="http://www.w3.org/2000/svg"><path d="M45 0C20.2 0 0 20.2 0 45s20.2 45 45 45 45-20.2 45-45S69.8 0 45 0m6.3 6.9c-.6 1.8-3.7.6-5 .6 1-.4 2.5-.9 3.4-1.6l.2-.2c.6.1 1.1.2 1.7.3-.5.2-1 .4-1.5.7.4.1.8.1 1.2.2m-15.7.8c.7.7 1.4-.4 2.1-.7 1.5-.8 3.6-.8 5.3-1.2-.3.8-2.7.5-3.6.8-1.1.4-.6.7-1.3 1.9.3 0 .7.2 1 .1v.2c-.7-.1-1.4-.4-1.6.5-.9-1.4-1.6-1.3-2.6 0 1 .6 2 1.2 1.2 2.2-1 1.1-1.5-.3-.6-.9-.9-.4-1.6-1.1-2.3-.2.3 0 .6.1.9.1-.2.2-.3 1-.5 1.1-.4.2-1.8-.3-2.2-.3-1.1-.1-2.1-.1-3.2 0 .2 1.3-1.3.1-1.8-.3 1-1 2.1-.6 3.3-.5.9.1 2.3.1 2.4-1.1-1-.2-1.5-.2-2-.9 0-.1-.1-.2-.1-.2 1.8-.7 3.7-1.3 5.6-1.8-.3.5-.4.9 0 1.2M5.4 45c0-9.4 3.3-18 8.8-24.8.7.5 1.4 1.1 1.7 1.3.7.6 1 1.3 1.4 2 0 0 .4.6.5.9.5.5.8 1 .9 1.6.1.7-.2 1.4-.2 2.2-.2 2.4.1 4.6 2 6.3.5.5 1.2.7 1.7 1.2s.5.9.8 1.4c.8 1.4 2 2.8 3 4.1.9 1.2 1.2.9.4-.3-.6-.8-1.3-1.6-1.8-2.5 0-.1-.5-1.3-.4-1.2 1.3.3 1.6 1.2 2.5 2.3.8 1.1 1.6 1.7 2.1 2.9.6 1.5 1.5 2.2 2.9 2.9.7.3 1.9 1.2 2.7 1.3.9.101 1.4-.5 2.2-.1.6.3 1 1.1 1.7 1.4.7.2 1.1-.1 1.8.4.8.5 1 1.4 1.7 1.9.5.399 1.2.899 1.9 1 .5.1 1-.3 1.399-.101.801.301 1.001 1.301.801 2.101-.3.9-1.1 1.5-1.5 2.4-.3.801-.1 1.5-.2 2.301-.1.8-.8 0-.1 1.399.3.601.7 1.2 1.1 1.8.8 1.2 1.3 2.2 2.3 3.101.7.7 2.3 1.399 2.6 2.399.3.9.1 2.8-.1 3.7-.3 1.9-.3 4.2-.8 6-.5 1.7-1.1 2.3-.7 4.1.2.8.3.399 0 1.5-.1.3 0 .399-.1.699-.2.601-.801 1-1.101 1.7.8 0 .8.3.7.601-1.099.1-2.099.2-3.199.2C23.2 84.6 5.4 66.8 5.4 45m47.1 38.9c-.2-.2-.4-.5-.4-.601 0-.2.801-1.3.9-1.5.2-.399.3-1.3.6-1.6.4-.5 1.4-.3 1.2-1.4 2.101 0 3-.3 3.3-2.5-.4-.199-.3-.099-.4-.399.1.399 1.6-.2 1.7.1.1.2 2-2.4 2.199-2.6.5-.601 1-1 1.301-1.7.1-.3.3-1.101.6-1.5 0 .1 0 .1-.1.2.699-1.101 1.5-.9 2.5-1.4 1-.4.3-.3 1-1 .899-.8 1-.3 1.3-1.7.2-1-.101-1.899.3-2.7.4-1.1 1.3-1.5 2-2.399.5-.7 1-1.9.3-2.601-.5-.6-2.2-1.1-2.899-1.3-.9-.2-1.9-.2-2.7-.6-1-.4-1.7-1.4-2.2.2-.2-.101-.8-.5-.8-.7 0 .399.899-.3 1.1-.5-.399 0-1.8.3-2 .2.101-.4.8-1.301.8-1.4.101-1-1.3-2.1-2.1-2.3-1-.3-1.6-.2-2.5-.8C56.4 50.6 55.4 49.7 54 49.6c-.3 0-.6.101-.9.101-.7-.101-1-.601-1.6-.701-.8-.2-1.1.5-1.5.5-.7 0-.8-.7-1.8-.1-1.5.899-.7 1.399-2.3 1-.9-.2-1.9.3-2.7-.3-.8-.5-.9-2-.2-2.6-.4.3-.4-.7-.6-.9-.4-.3-1.1 0-1.6-.1-.7-.2-1.1-.2-.9-.9.2-.7 2.1-2.6.1-2.6-1.1 0-1.4 1.6-2.5 1.8-1.2.2-2.3-.2-3-1.3-1.3-2.3.8-5.1 3-5.3 1.7-.2 4.2-1.4 5.5.5.4.5 1.3 2.7 1.7 1.3.1-.4-.4-2.2-.5-3 .3-.5.899-.9 1.3-1.3-.1 0-.1.1-.2.2.4-.4 1.601-1 1.8-1.6.1-.3-.4-.8-.1-1.2.2-.4.7-.2.9-.4.3-.3.3-.9.6-1.3s.9-.4 1.2-.7c.7-.6.899-1.4 1.7-1.7.8-.5 1.6-1.4 2.6-1-.4.4-1.3.7-1.5 1s1.3.1 1.5 0c.8-.3 1.5-1 2.3-1.4 1.2-.8 2.7-.9 4.2-.6.5.1-.8-1.8-1-1.9-.5-.6-.6-1.1-1.5-.4-.2.2-.5 1-.7 1.3-.5 1-.399.8-1.6 1.4.1 0 .1-.1.2-.1-.801.2-1.7.5-2-.5-.1-.4.4-.9.1-1.2-.6-.8-2.6.9-3.3 1.1.399-2.9 3.8-1.4 5.6-1.9.5-.2 2.4-.9 2.5-1.3.2-.7-1.5-1.8-1.8-2.1-.8-.7-1.2-1.1-1.7-2.1-.5-1.1-.8-2.3-2-1.4-.399.3-.1 1-.899 1.1-.5.1-1-.5-1.301-.8-.399-.4-.899-1.5-1.6-1.6s-2.5-1-3.3-.4c-.7.5.1 2.3.3 2.9.4 1.4.7 1.4-.5 2.3-.6.4-.9 0-.7 1.1.101.6.8.7.3 1.2-.3.3-1 .3-1.3.1-1-.5-.1-1.1-.6-1.8-.4-.5-2.4-.9-3-1.2-1.5-.7-5.5-1.4-4.2-3.7.3-.6 1.6-1.6 2.1-1.9.6-.4 1.3-.5 1.8-1 .3-.3.3-1.1.5-1.3.3-.3 1.3-.2 1.9-.1 2.3-.5.2-3.8 3.2-3.2.8.2 1.7 1 2.4 1.5.8.5 1 .5.8 1.3-.101.2-.9 1-1.101 1.2-.399.3-1.1.5-1.5.7 1.601 0 2.301-.1 3.601.8 1.1.7 1.8 1.2 3.2 1.2-.101-.7-1.301-.4-1.2-1.1 0-.6.7.2.8.2.4 0 1.4.5 1.2-.6-.2-.9-2.2-.5-1.601-2 .9-.1.7.9 1.301 1.1.6.2 1.5-.6 1.6-1.1-.9-.5-3.7-1.2-3.4-2.5 1.801 1.2 3.7 2.4 5.5 3.5-1.5 1.3 1.101.6 1.2.6.4.1 1.601 1.1.8 1.3-.8.2-1.199-.9-1.899-.1.6.2 2.899.3 2.3 1.5-.2.5-1.7.4-2.1 1.4.3-.1.6 0 1 0-.7 1.1.3 1.8.899 2.7.601 1 1.5 2.5 2.8 2.8 2.7.7 2.4-3.7 4.4-4.4.6-.2 1.2-.1 1.8-.2.601-.2 1-.6 1.5-1 1.101-.8 2.101-.9 3.3-.9 4 4 7.101 8.9 9.101 14.4-.2.1-.4.2-.5.4-.201.2-.201.4-.301.7l-.301.3c-.199.4 0 .9 0 1.3 0 .5-.199.9.101 1.3.2.4.6.8 1 1.1.3.3.7.6 1.1.6.101 0 .4 0 .601-.1l.3 1.8c-.4.4-.9.9-1.101 1.3-.3.6-.3 1-.899 1.5-.5.5-1.101.6-1.601 1.2-.399.6-.399 1-.699 1.6-.2.3-.601.4-.7.8-.4.8.1 2.1 0 3 0 1.1-.4 2 .2 3 .6.899 1.5 1.8 2.3 2.399.5.5 1.1.9 1.7 1.101C79.5 69.6 67.5 81 52.5 83.9"/></svg><svg width="52" height="55" viewBox="-10 -10 52 55" id="ico-hamburger" y="2171" xmlns="http://www.w3.org/2000/svg"><path fill="#157F30" d="M.001 0H32v3H.001zM.001 32H32v3H.001zM.002 16h31.999v3H.002z"/></svg><svg width="1812" height="1812" viewBox="-10 -10 1812 1812" id="ico-home" y="2226" xmlns="http://www.w3.org/2000/svg"><path d="M1472 992v480q0 26-19 45t-45 19h-384v-384H768v384H384q-26 0-45-19t-19-45V992q0-1 .5-3t.5-3l575-474 575 474q1 2 1 6zm223-69l-62 74q-8 9-21 11h-3q-13 0-21-7L896 424l-692 577q-12 8-24 7-13-2-21-11l-62-74q-8-10-7-23.5t11-21.5l719-599q32-26 76-26t76 26l244 204V288q0-14 9-23t23-9h192q14 0 23 9t9 23v408l219 182q10 8 11 21.5t-7 23.5z"/></svg><svg width="56.89" height="53.54" viewBox="-10 -10 56.89 53.54" id="ico-linkedin" y="4038" xmlns="http://www.w3.org/2000/svg"><path fill="#187FB8" d="M.931 10.753h7.19v22.783H.931z"/><g fill="#187FB8"><path d="M27.766 10.536c-4.119 0-6.7 2.231-7.178 3.794v-3.575H12.51c.105 1.898 0 22.782 0 22.782h8.078V21.208c0-.686-.032-1.37.176-1.862.556-1.37 1.748-2.792 3.894-2.792 2.804 0 4.08 2.107 4.08 5.193v11.789h8.153V20.869c0-7.056-4.016-10.333-9.125-10.333M4.392 0C1.737 0 0 1.705 0 3.956c0 2.207 1.687 3.949 4.29 3.949h.052c2.703 0 4.386-1.748 4.386-3.956C8.676 1.701 7.045 0 4.392 0"/></g></svg><svg width="52" height="65.71" viewBox="-10 -10 52 65.71" id="ico-lockpad" y="4092" xmlns="http://www.w3.org/2000/svg"><path d="M29 45.713H3c-1.654 0-3-1.346-3-3v-22c0-1.654 1.346-3 3-3h26c1.654 0 3 1.346 3 3v22c0 1.654-1.346 3-3 3m-25-4h24v-20H4v20z"/><path d="M25.901 21.713H4.099v-9.812C4.099 5.339 9.438 0 16 0c6.617 0 12 5.255 12 11.714h-4C24 7.461 20.411 4 16 4c-4.357 0-7.901 3.544-7.901 7.901v5.812h17.803l-.001 4zM17.896 36.713h-3.792a.936.936 0 0 1-.923-1.089L14 30.713l-.272-1.089a2.342 2.342 0 1 1 4.544-.001L18 30.713l.819 4.911a.936.936 0 0 1-.923 1.089"/></svg><svg width="70.39" height="55.99" viewBox="-10 -10 70.39 55.99" id="ico-mail" y="4158" xmlns="http://www.w3.org/2000/svg"><path d="M26.155 26.156a1.8 1.8 0 0 1-2.544 0L.176 2.719c-.07.289-.176.566-.176.878V32.39a3.599 3.599 0 0 0 3.599 3.599h43.187a3.6 3.6 0 0 0 3.6-3.599V3.597c0-.493-.102-.966-.283-1.391l-23.948 23.95z"/><path d="M24.883 22.337L47.147.073C47.02.06 46.915 0 46.786 0H3.599c-.309 0-.591.103-.879.175l22.163 22.162z"/></svg><svg width="84" height="64" viewBox="-10 -10 84 64" id="ico-mail-outline" y="4214" xmlns="http://www.w3.org/2000/svg"><path d="M63.966 4.5a1.977 1.977 0 0 0-.156-1.144C63.306 1.143 61.705 0 59 0H7C4.621 0 2.057.875.796 2.592a1.986 1.986 0 0 0-.761 1.913A4.209 4.209 0 0 0 0 5v32c0 3.314 3.686 7 7 7h52c3.314 0 5-3.686 5-7V5c0-.177-.024-.332-.034-.5zM7 4h52.027L32 25.541 5.083 4.088C5.695 3.975 6.448 4 7 4zm52 36H7c-1.102 0-3-1.896-3-3V8.347l26.69 21.352c.376.326.843.488 1.31.488s.934-.162 1.31-.488L60 8.348V37c0 1.104.104 3-1 3z"/></svg><svg width="51.65" height="67.61" viewBox="-10 -10 51.65 67.61" id="ico-phone" y="4278" xmlns="http://www.w3.org/2000/svg"><path d="M23.417 47.61a7.94 7.94 0 0 0 3.285-.688 7.467 7.467 0 0 0 1.047-.579l2.808-2.135a2.734 2.734 0 0 0 .836-3.328l-3.463-7.534c-.674-1.467-2.109-2.208-3.275-1.684l-3.864 1.74c-2.062.931-5.062-1.038-6.559-4.293l-3.197-6.959a7.944 7.944 0 0 1-.532-5.875 3.13 3.13 0 0 1 1.568-1.816c.022-.011.045-.022.066-.034l3.797-1.709a2.017 2.017 0 0 0 1.047-1.149 3.195 3.195 0 0 0-.168-2.421l-3.461-7.533A2.762 2.762 0 0 0 10.289.055L6.887.73a7.628 7.628 0 0 0-1.198.418 9.042 9.042 0 0 0-4.603 5.325C-1.065 12.214.024 21.062 3.93 29.564 8.939 40.466 16.915 47.61 23.417 47.61"/></svg><svg width="83.96" height="84.13" viewBox="-10 -10 83.96 84.13" id="ico-phone-outline" y="4346" xmlns="http://www.w3.org/2000/svg"><path d="M60.088 12.538a.902.902 0 0 1-.014.164c-1.635 1.125-10.777 7.164-12.486 8.26-.18.004-.637-.057-1.289-.4-.696-.366-2.721-1.502-5.555-3.12l-2.205-1.257-2.078 1.459c-1.545 1.087-4.904 3.675-10.018 8.789-5.136 5.134-7.716 8.482-8.799 10.021l-1.458 2.077 1.259 2.205c1.221 2.138 2.684 4.72 3.125 5.56.356.674.383 1.135.383 1.26 0 .02 0 .037-.002.05-.961 1.532-7.162 10.872-8.293 12.521-.16.026-.508.002-.943-.301-3.514-2.537-7.184-6.139-7.709-7.55.352-7.502 6.945-18.028 18.598-29.679C34.258 10.946 44.773 4.354 52.25 4.007c1.414.506 5.039 4.176 7.557 7.658.177.258.281.576.281.873m3.875 0a5.564 5.564 0 0 0-.998-3.156c-.066-.094-6.766-9.506-10.646-9.381-10.903.348-23.716 10.941-32.544 19.768C10.947 28.595.35 41.407 0 52.353v.089c0 3.832 9.293 10.569 9.385 10.634 2.525 1.768 5.305 1.122 6.433-.486.688-.979 7.811-11.692 8.614-13.004.349-.572.521-1.271.521-2.029 0-.979-.285-2.063-.842-3.121-.543-1.032-2.32-4.155-3.193-5.682.945-1.347 3.367-4.508 8.353-9.49 4.95-4.951 8.137-7.395 9.491-8.346 1.527.871 4.65 2.646 5.678 3.186 1.938 1.023 3.873 1.138 5.178.308 1.23-.779 11.863-7.873 12.875-8.605.954-.691 1.47-1.927 1.47-3.269"/></svg><svg width="109.77" height="79.92" viewBox="-10 -10 109.77 79.92" id="ico-pig" y="4431" xmlns="http://www.w3.org/2000/svg"><path d="M.002 30.759a1.067 1.067 0 0 0 1.008 1.122c.024.002.132.007.306.007.702 0 2.482-.085 4.067-.862 1.29.255 2.544.267 3.365.232.615 7.916 4.142 11.382 6.856 13.332 2.481 1.784 1.801 5.063 1.771 5.202a1.067 1.067 0 0 0 .916 1.288c1.782.207 2.91 4.802 3.111 7.842a1.066 1.066 0 0 0 1.335.959l4.637-1.237c.295-.078.542-.281.678-.555a1.06 1.06 0 0 0 .034-.875c-.595-1.47-1.928-6.062-.303-7.811.104-.112.205-.227.306-.338 12.357 4.31 19.992 2.36 24.585 1.185 1.817-.466 3.253-.833 4.214-.628 2.586.554 5.971 6.062 7.498 9.405a1.062 1.062 0 0 0 1.262.58l4.722-1.359a1.063 1.063 0 0 0 .652-1.513c-1.562-3.01-2.43-6.075-2.914-8.559.871.112 1.688.165 2.451.165 5.246 0 8.104-2.451 10.398-4.854 2.494-2.612 6.617-2.299 6.659-2.297a1.062 1.062 0 0 0 1.142-.903l.996-6.689a1.063 1.063 0 0 0-.701-1.16c-6.098-2.142-7.744-6.238-8.184-8.106 1.9-.07 3.213.651 3.296.698.371.21.835.179 1.174-.08.339-.259.492-.694.386-1.108-2.002-7.797-7.373-11.117-11.525-12.529a22.67 22.67 0 0 0-3.244-.835c-.616-.835-2.354-2.97-5.382-5.104C62.096 2.922 56.17 0 47.689 0 37.543 0 27.558 3.822 19.574 10.762 13.042 16.44 8.653 23.676 8.653 28.768c0 .12.003.236.004.354-.309.012-.69.016-1.112 0 .476-.772.715-1.68.715-2.713a3.872 3.872 0 0 0-3.869-3.869 3.872 3.872 0 0 0-3.758 4.79c.008.034.019.067.029.099.304.985.87 1.722 1.578 2.274a8.208 8.208 0 0 1-1.118.05 1.064 1.064 0 0 0-1.12 1.006M16.847 42.86c-2.823-2.03-6.064-5.464-6.062-14.094 0-3.632 3.188-10.314 10.188-16.399 4.4-3.824 13.722-10.24 26.718-10.24 10.951 0 17.406 5.123 20.16 7.989-1.285-.064-2.108 0-2.183.006a1.065 1.065 0 0 0 .176 2.122c.036-.003 3.713-.282 7.738 1.104 4.621 1.591 7.796 4.631 9.463 9.052-1.654-.354-4.087-.404-6.734 1.121-3.635 2.092-7.062 1.392-7.097 1.385a1.066 1.066 0 0 0-1.265.814 1.062 1.062 0 0 0 .807 1.266c.07.016.809.173 1.961.173 1.631 0 4.09-.315 6.655-1.793a8.138 8.138 0 0 1 1.405-.643c.506 2.22 2.314 6.837 8.744 9.41l-.732 4.919c-1.658.053-5.006.486-7.371 2.963-2.545 2.666-5.365 4.968-11.668 3.957-.247-1.882-.25-3.091-.25-3.12a1.065 1.065 0 0 0-1.061-1.067h-.004c-.586 0-1.062.473-1.064 1.059-.001.292.004 6.867 3.189 13.709l-2.63.757c-1.207-2.441-4.75-8.947-8.593-9.771-1.448-.311-3.099.112-5.188.646-4.543 1.163-11.322 2.896-22.628-.883 3.434-4.718 3.746-9.253 3.321-12.396-.527-3.904-2.257-6.504-2.331-6.613a1.064 1.064 0 0 0-1.766 1.188c.032.05 1.557 2.383 1.998 5.799.587 4.551-.933 8.814-4.518 12.672-2.233 2.404-1.199 6.813-.517 8.93l-2.31.617c-.295-2.335-1.203-6.959-3.815-8.23.111-1.532-.076-4.498-2.736-6.409M2.693 26.788a1.74 1.74 0 0 1 1.698-2.119c.96 0 1.74.781 1.74 1.74 0 .899-.271 1.593-.828 2.121-.082.077-.169.15-.259.219-1.088-.327-2.036-.917-2.351-1.961"/></svg><svg width="104.67" height="132.26" viewBox="-10 -10 104.67 132.26" id="ico-pin" y="4511" xmlns="http://www.w3.org/2000/svg"><path d="M42.332 112.256l-1.768-1.768C38.908 108.832 0 69.61 0 42.333 0 18.991 18.99 0 42.332 0c23.343 0 42.333 18.991 42.333 42.333 0 27.277-38.909 66.499-40.565 68.155l-1.768 1.768zM42.332 5C21.747 5 5 21.748 5 42.333c0 22.097 29.699 54.762 37.333 62.791 7.633-8.031 37.333-40.707 37.333-62.791C79.665 21.748 62.918 5 42.332 5z"/><path d="M42.332 29.055c7.436 0 13.278 5.842 13.278 13.278 0 7.435-5.843 13.277-13.278 13.277-7.435 0-13.277-5.842-13.277-13.277 0-7.436 5.842-13.278 13.277-13.278"/></svg><svg width="72" height="72" viewBox="-10 -10 72 72" id="ico-play" y="4644" xmlns="http://www.w3.org/2000/svg"><path fill="#B3B3B3" d="M0 52V0l52 26.063z"/></svg><svg width="93.05" height="98.28" viewBox="-10 -10 93.05 98.28" id="ico-poultry" y="4716" xmlns="http://www.w3.org/2000/svg"><path d="M71.804 9.526c-.812-.869-1.692-1.742-2.635-2.488V3.326A3.298 3.298 0 0 0 65.843 0c-1.271 0-2.445.685-2.935 1.761a3.419 3.419 0 0 0-2.152-.783 3.299 3.299 0 0 0-3.325 3.326v2.045c-7.358 2.993-13.279 10.888-15.696 21.567h-24.09c-.69-.64-1.464-1.2-2.284-1.655-3.065-1.861-5.977-2.845-8.419-2.845-1.933 0-3.344.661-4.314 2.019l-.058.091c-.955 1.698-.649 3.825.848 6.083-1.868.786-3.043 2.043-3.363 3.643-.492 2.953 2.419 5.736 8.01 7.69.648 13.978 11.872 25.348 25.696 26.302v8.038a1 1 0 1 0 2 0v-7.966h3.78c15.219 0 27.6-12.381 27.6-27.6 0-5.599-1.85-10.889-2.64-13.147-.144-.412-.255-.725-.315-.938-1.645-5.44-1.325-9.902.932-12.911 1.354-1.848 3.419-3.035 6.134-3.528l1.802-.328-1.25-1.338zm-8.293 4.003c-2.647 3.53-3.076 8.607-1.244 14.667.063.221.186.572.347 1.033.756 2.163 2.527 7.229 2.527 12.487 0 14.115-11.484 25.6-25.6 25.6h-3.9c-13.83 0-25.314-11.269-25.6-25.12l-.015-.71-.675-.221c-3.792-1.234-7.708-3.377-7.329-5.653.225-1.123 1.417-2.044 3.272-2.528l1.517-.396-.999-1.208c-1.604-1.942-2.157-3.734-1.524-4.928.418-.569 1.072-1.136 2.653-1.136 2.046 0 4.667.907 7.415 2.574a9.808 9.808 0 0 1 2.179 1.633l.293.292h26.527l.166-.797c2.741-13.219 10.988-22.101 20.52-22.101h.24c1.686 0 3.351 1.2 4.852 2.641-2.374.745-4.298 2.066-5.622 3.871z"/><path d="M42.394 47.342a1 1 0 0 0-1 1c0 4.953-3.99 8.983-8.894 8.983-4.905 0-8.895-3.99-8.895-8.895 0-.639.082-1.208.169-1.819l.103-.714-.646-.322a5.012 5.012 0 0 1-2.745-4.453c0-1.441.637-2.788 1.794-3.79a1.001 1.001 0 0 0-1.31-1.512c-1.602 1.389-2.484 3.271-2.484 5.302a7.038 7.038 0 0 0 3.216 5.881c-.055.444-.097.911-.097 1.428 0 6.007 4.888 10.895 10.895 10.895s10.894-4.927 10.894-10.983a1 1 0 0 0-1-1.001zM65.924 15.313c-.167.223-.304.47-.447.711.271.348.69.573 1.173.573.571 0 1.098-.307 1.317-.79.263.219.614.351.965.351a1.48 1.48 0 0 0 1.493-1.492v-2.26c-1.959.531-3.472 1.504-4.501 2.907zM38.549 77.282a1 1 0 1 0 2 0v-6.737a28.1 28.1 0 0 1-2-.12v6.857z"/></svg><svg width="68.98" height="48.18" viewBox="-10 -10 68.98 48.18" id="ico-retweet" y="4815" xmlns="http://www.w3.org/2000/svg"><path d="M41.032 16.559V0h-2.889L20.65.039l5.69 5.829 8.914-.096v10.787h-7.951l11 11.625 10.681-11.625zM13.726 22.412V11.625h7.954L10.682 0 0 11.625h7.953v16.559h2.885l17.499-.039-5.692-5.832z"/></svg><svg width="84.82" height="86.23" viewBox="-10 -10 84.82 86.23" id="ico-search" y="4864" xmlns="http://www.w3.org/2000/svg"><path d="M63.019 55.745l-12.843-10.94c3.57-4.695 5.715-10.527 5.715-16.863C55.891 12.535 43.356 0 27.946 0S0 12.534 0 27.94s12.535 27.946 27.945 27.946c5.969 0 11.492-1.898 16.04-5.099l10.323 13.621a6.144 6.144 0 1 0 8.711-8.663m-35.074-7.359C16.672 48.386 7.5 39.214 7.5 27.941S16.672 7.5 27.945 7.5 48.39 16.668 48.39 27.941s-9.171 20.445-20.445 20.445"/></svg><svg width="1812" height="1812" viewBox="-10 -10 1812 1812" id="ico-shopping-cart" y="4951" xmlns="http://www.w3.org/2000/svg"><path d="M704 1536q0 52-38 90t-90 38-90-38-38-90 38-90 90-38 90 38 38 90zm896 0q0 52-38 90t-90 38-90-38-38-90 38-90 90-38 90 38 38 90zm128-1088v512q0 24-16.5 42.5T1671 1024L627 1146q13 60 13 70 0 16-24 64h920q26 0 45 19t19 45-19 45-45 19H512q-26 0-45-19t-19-45q0-11 8-31.5t16-36 21.5-40T509 1207L332 384H128q-26 0-45-19t-19-45 19-45 45-19h256q16 0 28.5 6.5T432 278t13 24.5 8 26 5.5 29.5 4.5 26h1201q26 0 45 19t19 45z"/></svg><svg width="57.45" height="51.21" viewBox="-10 -10 57.45 51.21" id="ico-twitter" y="6763" xmlns="http://www.w3.org/2000/svg"><path fill="#24A9E6" d="M36.42.577a15.098 15.098 0 0 1-4.883 1.909A7.575 7.575 0 0 0 25.93 0c-4.24 0-7.682 3.528-7.682 7.879 0 .618.066 1.217.198 1.794C12.061 9.344 6.399 6.21 2.607 1.438a8.022 8.022 0 0 0-1.04 3.966c0 2.732 1.356 5.144 3.418 6.557a7.543 7.543 0 0 1-3.482-.982v.096c0 3.819 2.649 7.005 6.167 7.726a7.324 7.324 0 0 1-2.025.277c-.495 0-.978-.048-1.447-.14.979 3.129 3.815 5.408 7.178 5.469a15.174 15.174 0 0 1-9.543 3.374c-.62 0-1.233-.035-1.833-.107 3.4 2.231 7.441 3.537 11.778 3.537 14.136 0 21.863-12.004 21.863-22.417 0-.343-.006-.685-.021-1.021a15.749 15.749 0 0 0 3.832-4.078 15.04 15.04 0 0 1-4.412 1.24A7.86 7.86 0 0 0 36.42.577"/></svg><svg width="123.79" height="93" viewBox="481.66 199.42 123.79 93" id="ico-youtube" y="6815" xmlns="http://www.w3.org/2000/svg"><linearGradient id="caa" gradientUnits="userSpaceOnUse" x1="491.661" y1="473.5" x2="595.449" y2="473.5" gradientTransform="matrix(1 0 0 -1 0 719.423)"><stop offset="0" stop-color="#e52d27"/><stop offset="1" stop-color="#bf171d"/></linearGradient><path fill="url(#caa)" d="M590.286 214.87c-3.945-4.133-8.37-4.154-10.398-4.396-14.41-1.042-35.97-1.049-36.306-1.049H543.532h-.004c-.336 0-21.896.008-36.306 1.049-2.029.242-6.451.263-10.399 4.396-3.112 3.15-4.125 10.303-4.125 10.303s-1.038 8.399-1.038 16.797v7.875c0 8.398 1.038 16.797 1.038 16.797s1.013 7.152 4.125 10.301c3.948 4.134 9.134 4.004 11.444 4.437 8.303.796 35.288 1.042 35.288 1.042s21.81-.033 36.333-1.083c2.028-.242 6.453-.263 10.398-4.397 3.112-3.149 4.127-10.301 4.127-10.301s1.036-8.399 1.036-16.797v-7.875c0-8.398-1.036-16.797-1.036-16.797s-1.015-7.152-4.127-10.302zm-57.446 44.515l-.005-29.162 28.045 14.632-28.04 14.53z"/></svg><svg width="84.82" height="86.23" viewBox="-10 -10 84.82 86.23" id="ico-zoom-in" y="6908" xmlns="http://www.w3.org/2000/svg"><path d="M63.019 55.745l-12.843-10.94c3.57-4.695 5.715-10.527 5.715-16.863C55.891 12.535 43.356 0 27.946 0S0 12.534 0 27.94s12.535 27.946 27.945 27.946c5.969 0 11.492-1.898 16.04-5.099l10.323 13.621a6.144 6.144 0 1 0 8.711-8.663m-35.074-7.359C16.672 48.386 7.5 39.214 7.5 27.941S16.672 7.5 27.945 7.5 48.39 16.668 48.39 27.941s-9.171 20.445-20.445 20.445"/><path d="M24.946 17.774h5.858v19.667h-5.858z"/><path d="M18.042 24.993h19.667v5.858H18.042z"/></svg><svg width="119" height="119" viewBox="-10 -10 119 119" id="pattern-circle" y="6995" xmlns="http://www.w3.org/2000/svg"><circle fill="#F7E895" cx="4.5" cy="94.5" r="3.5"/><circle fill="#F7E895" cx="24.5" cy="94.5" r="3.5"/><circle fill="#F7E895" cx="44.5" cy="94.5" r="3.5"/><circle fill="#F7E895" cx="64.5" cy="94.5" r="3.5"/><circle fill="#F7E895" cx="84.5" cy="94.5" r="3.5"/><circle fill="#F7E895" cx="14.5" cy="84.5" r="3.5"/><circle fill="#F7E895" cx="34.5" cy="84.5" r="3.5"/><circle fill="#F7E895" cx="54.5" cy="84.5" r="3.5"/><circle fill="#F7E895" cx="74.5" cy="84.5" r="3.5"/><circle fill="#F7E895" cx="94.5" cy="84.5" r="3.5"/><circle fill="#F7E895" cx="24.5" cy="74.5" r="3.5"/><circle fill="#F7E895" cx="44.5" cy="74.5" r="3.5"/><circle fill="#F7E895" cx="64.5" cy="74.5" r="3.5"/><circle fill="#F7E895" cx="84.5" cy="74.5" r="3.5"/><circle fill="#F7E895" cx="34.5" cy="64.5" r="3.5"/><circle fill="#F7E895" cx="54.5" cy="64.5" r="3.5"/><circle fill="#F7E895" cx="74.5" cy="64.5" r="3.5"/><circle fill="#F7E895" cx="94.5" cy="64.5" r="3.5"/><circle fill="#F7E895" cx="44.5" cy="54.5" r="3.5"/><circle fill="#F7E895" cx="64.5" cy="54.5" r="3.5"/><circle fill="#F7E895" cx="84.5" cy="54.5" r="3.5"/><circle fill="#F7E895" cx="54.5" cy="44.5" r="3.5"/><circle fill="#F7E895" cx="74.5" cy="44.5" r="3.5"/><circle fill="#F7E895" cx="94.5" cy="44.5" r="3.5"/><circle fill="#F7E895" cx="64.5" cy="34.5" r="3.5"/><circle fill="#F7E895" cx="84.5" cy="34.5" r="3.5"/><circle fill="#F7E895" cx="74.5" cy="24.5" r="3.5"/><circle fill="#F7E895" cx="94.5" cy="24.5" r="3.5"/><circle fill="#F7E895" cx="84.5" cy="14.5" r="3.5"/><circle fill="#F7E895" cx="94.5" cy="4.5" r="3.5"/></svg><svg width="217.33" height="407.13" viewBox="-10 -10 217.33 407.13" id="pattern-circle-big" y="7114" xmlns="http://www.w3.org/2000/svg"><circle fill="#F3E895" cx="103.666" cy="193.5" r="3.5"/><circle fill="#F3E895" cx="123.666" cy="193.5" r="3.5"/><circle fill="#F3E895" cx="143.666" cy="193.5" r="3.5"/><circle fill="#F3E895" cx="163.666" cy="193.5" r="3.5"/><circle fill="#F3E895" cx="183.666" cy="193.5" r="3.5"/><circle fill="#F3E895" cx="113.666" cy="183.5" r="3.5"/><circle fill="#F3E895" cx="133.666" cy="183.5" r="3.5"/><circle fill="#F3E895" cx="153.666" cy="183.5" r="3.5"/><circle fill="#F3E895" cx="173.666" cy="183.5" r="3.5"/><circle fill="#F3E895" cx="193.666" cy="183.5" r="3.5"/><circle fill="#F3E895" cx="123.666" cy="173.5" r="3.5"/><circle fill="#F3E895" cx="143.666" cy="173.5" r="3.5"/><circle fill="#F3E895" cx="163.666" cy="173.5" r="3.5"/><circle fill="#F3E895" cx="183.666" cy="173.5" r="3.5"/><circle fill="#F3E895" cx="133.666" cy="163.5" r="3.5"/><circle fill="#F3E895" cx="153.666" cy="163.5" r="3.5"/><circle fill="#F3E895" cx="173.666" cy="163.5" r="3.5"/><circle fill="#F3E895" cx="193.666" cy="163.5" r="3.5"/><circle fill="#F3E895" cx="143.666" cy="153.5" r="3.5"/><circle fill="#F3E895" cx="163.666" cy="153.5" r="3.5"/><circle fill="#F3E895" cx="183.666" cy="153.5" r="3.5"/><circle fill="#F3E895" cx="153.666" cy="143.5" r="3.5"/><circle fill="#F3E895" cx="173.666" cy="143.5" r="3.5"/><circle fill="#F3E895" cx="193.666" cy="143.5" r="3.5"/><circle fill="#F3E895" cx="163.666" cy="133.5" r="3.5"/><circle fill="#F3E895" cx="183.666" cy="133.5" r="3.5"/><circle fill="#F3E895" cx="173.666" cy="123.5" r="3.5"/><circle fill="#F3E895" cx="193.666" cy="123.5" r="3.5"/><circle fill="#F3E895" cx="183.666" cy="113.5" r="3.5"/><circle fill="#F3E895" cx="193.666" cy="103.125" r="3.5"/><circle fill="#F3E895" cx="103.666" cy="93.5" r="3.5"/><circle fill="#F3E895" cx="123.666" cy="93.5" r="3.5"/><circle fill="#F3E895" cx="143.666" cy="93.5" r="3.5"/><circle fill="#F3E895" cx="163.666" cy="93.5" r="3.5"/><circle fill="#F3E895" cx="183.666" cy="93.5" r="3.5"/><circle fill="#F3E895" cx="113.666" cy="83.5" r="3.5"/><circle fill="#F3E895" cx="133.666" cy="83.5" r="3.5"/><circle fill="#F3E895" cx="153.666" cy="83.5" r="3.5"/><circle fill="#F3E895" cx="173.666" cy="83.5" r="3.5"/><circle fill="#F3E895" cx="193.666" cy="83.5" r="3.5"/><circle fill="#F3E895" cx="123.666" cy="73.5" r="3.5"/><circle fill="#F3E895" cx="143.666" cy="73.5" r="3.5"/><circle fill="#F3E895" cx="163.666" cy="73.5" r="3.5"/><circle fill="#F3E895" cx="183.666" cy="73.5" r="3.5"/><circle fill="#F3E895" cx="133.666" cy="63.5" r="3.5"/><circle fill="#F3E895" cx="153.666" cy="63.5" r="3.5"/><circle fill="#F3E895" cx="173.666" cy="63.5" r="3.5"/><circle fill="#F3E895" cx="193.666" cy="63.5" r="3.5"/><circle fill="#F3E895" cx="143.666" cy="53.5" r="3.5"/><circle fill="#F3E895" cx="163.666" cy="53.5" r="3.5"/><circle fill="#F3E895" cx="183.666" cy="53.5" r="3.5"/><circle fill="#F3E895" cx="153.666" cy="43.5" r="3.5"/><circle fill="#F3E895" cx="173.666" cy="43.5" r="3.5"/><circle fill="#F3E895" cx="193.666" cy="43.5" r="3.5"/><circle fill="#F3E895" cx="163.666" cy="33.5" r="3.5"/><circle fill="#F3E895" cx="183.666" cy="33.5" r="3.5"/><circle fill="#F3E895" cx="173.666" cy="23.5" r="3.5"/><circle fill="#F3E895" cx="193.666" cy="23.5" r="3.5"/><circle fill="#F3E895" cx="183.666" cy="13.5" r="3.5"/><circle fill="#F3E895" cx="83.667" cy="193.5" r="3.5"/><circle fill="#F3E895" cx="113.666" cy="103.125" r="3.5"/><circle fill="#F3E895" cx="133.666" cy="103.125" r="3.5"/><circle fill="#F3E895" cx="153.666" cy="103.125" r="3.5"/><circle fill="#F3E895" cx="173.666" cy="103.125" r="3.5"/><circle fill="#F3E895" cx="93.667" cy="183.438" r="3.5"/><circle fill="#F3E895" cx="103.666" cy="173.5" r="3.5"/><circle fill="#F3E895" cx="113.729" cy="163.5" r="3.5"/><circle fill="#F3E895" cx="123.666" cy="153.5" r="3.5"/><circle fill="#F3E895" cx="133.666" cy="143.5" r="3.5"/><circle fill="#F3E895" cx="143.541" cy="133.563" r="3.5"/><circle fill="#F3E895" cx="153.791" cy="123.5" r="3.5"/><circle fill="#F3E895" cx="163.666" cy="113.5" r="3.5"/><circle fill="#F3E895" cx="143.416" cy="113.374" r="3.5"/><circle fill="#F3E895" cx="123.666" cy="113.5" r="3.5"/><circle fill="#F3E895" cx="133.666" cy="123.5" r="3.5"/><circle fill="#F3E895" cx="93.667" cy="103.125" r="3.5"/><circle fill="#F3E895" cx="83.667" cy="113.5" r="3.5"/><circle fill="#F3E895" cx="73.917" cy="123.5" r="3.5"/><circle fill="#F3E895" cx="63.667" cy="133.563" r="3.5"/><circle fill="#F3E895" cx="53.667" cy="143.5" r="3.5"/><circle fill="#F3E895" cx="43.667" cy="153.5" r="3.5"/><circle fill="#F3E895" cx="33.667" cy="163.563" r="3.5"/><circle fill="#F3E895" cx="23.604" cy="173.438" r="3.5"/><circle fill="#F3E895" cx="103.666" cy="113.5" r="3.5"/><circle fill="#F3E895" cx="93.667" cy="123.5" r="3.5"/><circle fill="#F3E895" cx="113.666" cy="123.5" r="3.5"/><circle fill="#F3E895" cx="123.666" cy="133.563" r="3.5"/><circle fill="#F3E895" cx="103.666" cy="133.563" r="3.5"/><circle fill="#F3E895" cx="83.667" cy="133.563" r="3.5"/><circle fill="#F3E895" cx="113.729" cy="143.5" r="3.5"/><circle fill="#F3E895" cx="93.667" cy="143.5" r="3.5"/><circle fill="#F3E895" cx="73.667" cy="143.5" r="3.5"/><circle fill="#F3E895" cx="103.666" cy="153.5" r="3.5"/><circle fill="#F3E895" cx="83.667" cy="153.5" r="3.5"/><circle fill="#F3E895" cx="63.667" cy="153.5" r="3.5"/><circle fill="#F3E895" cx="93.667" cy="163.563" r="3.5"/><circle fill="#F3E895" cx="73.667" cy="163.563" r="3.5"/><circle fill="#F3E895" cx="53.667" cy="163.563" r="3.5"/><circle fill="#F3E895" cx="83.667" cy="173.5" r="3.5"/><circle fill="#F3E895" cx="63.667" cy="173.5" r="3.5"/><circle fill="#F3E895" cx="43.667" cy="173.5" r="3.5"/><circle fill="#F3E895" cx="73.667" cy="183.5" r="3.5"/><circle fill="#F3E895" cx="53.667" cy="183.438" r="3.5"/><circle fill="#F3E895" cx="33.667" cy="183.5" r="3.5"/><circle fill="#F3E895" cx="63.667" cy="193.5" r="3.5"/><circle fill="#F3E895" cx="43.667" cy="193.5" r="3.5"/><circle fill="#F3E895" cx="23.604" cy="193.5" r="3.5"/><circle fill="#F3E895" cx="13.542" cy="183.438" r="3.5"/><circle fill="#F3E895" cx="3.5" cy="193.5" r="3.5"/><circle fill="#F3E895" cx="193.385" cy="3.5" r="3.5"/><circle fill="#F3E895" cx="113.833" cy="203.625" r="3.5"/><circle fill="#F3E895" cx="133.833" cy="203.625" r="3.5"/><circle fill="#F3E895" cx="153.833" cy="203.625" r="3.5"/><circle fill="#F3E895" cx="173.833" cy="203.625" r="3.5"/><circle fill="#F3E895" cx="193.833" cy="203.625" r="3.5"/><circle fill="#F3E895" cx="123.833" cy="213.625" r="3.5"/><circle fill="#F3E895" cx="143.833" cy="213.625" r="3.5"/><circle fill="#F3E895" cx="163.833" cy="213.625" r="3.5"/><circle fill="#F3E895" cx="183.833" cy="213.625" r="3.5"/><circle fill="#F3E895" cx="133.833" cy="223.625" r="3.5"/><circle fill="#F3E895" cx="153.833" cy="223.625" r="3.5"/><circle fill="#F3E895" cx="173.833" cy="223.625" r="3.5"/><circle fill="#F3E895" cx="193.833" cy="223.625" r="3.5"/><circle fill="#F3E895" cx="143.833" cy="233.625" r="3.5"/><circle fill="#F3E895" cx="163.833" cy="233.625" r="3.5"/><circle fill="#F3E895" cx="183.833" cy="233.625" r="3.5"/><circle fill="#F3E895" cx="153.833" cy="243.625" r="3.5"/><circle fill="#F3E895" cx="173.833" cy="243.625" r="3.5"/><circle fill="#F3E895" cx="193.833" cy="243.625" r="3.5"/><circle fill="#F3E895" cx="163.833" cy="253.625" r="3.5"/><circle fill="#F3E895" cx="183.833" cy="253.625" r="3.5"/><circle fill="#F3E895" cx="173.833" cy="263.625" r="3.5"/><circle fill="#F3E895" cx="193.833" cy="263.625" r="3.5"/><circle fill="#F3E895" cx="183.833" cy="273.625" r="3.5"/><circle fill="#F3E895" cx="193.833" cy="284" r="3.5"/><circle fill="#F3E895" cx="103.833" cy="293.625" r="3.5"/><circle fill="#F3E895" cx="123.833" cy="293.625" r="3.5"/><circle fill="#F3E895" cx="143.833" cy="293.625" r="3.5"/><circle fill="#F3E895" cx="163.833" cy="293.625" r="3.5"/><circle fill="#F3E895" cx="183.833" cy="293.625" r="3.5"/><circle fill="#F3E895" cx="113.833" cy="303.625" r="3.5"/><circle fill="#F3E895" cx="133.833" cy="303.625" r="3.5"/><circle fill="#F3E895" cx="153.833" cy="303.625" r="3.5"/><circle fill="#F3E895" cx="173.833" cy="303.625" r="3.5"/><circle fill="#F3E895" cx="193.833" cy="303.625" r="3.5"/><circle fill="#F3E895" cx="123.833" cy="313.625" r="3.5"/><circle fill="#F3E895" cx="143.833" cy="313.625" r="3.5"/><circle fill="#F3E895" cx="163.833" cy="313.625" r="3.5"/><circle fill="#F3E895" cx="183.833" cy="313.625" r="3.5"/><circle fill="#F3E895" cx="133.833" cy="323.625" r="3.5"/><circle fill="#F3E895" cx="153.833" cy="323.625" r="3.5"/><circle fill="#F3E895" cx="173.833" cy="323.625" r="3.5"/><circle fill="#F3E895" cx="193.833" cy="323.625" r="3.5"/><circle fill="#F3E895" cx="143.833" cy="333.625" r="3.5"/><circle fill="#F3E895" cx="163.833" cy="333.625" r="3.5"/><circle fill="#F3E895" cx="183.833" cy="333.625" r="3.5"/><circle fill="#F3E895" cx="153.833" cy="343.625" r="3.5"/><circle fill="#F3E895" cx="173.833" cy="343.625" r="3.5"/><circle fill="#F3E895" cx="193.833" cy="343.625" r="3.5"/><circle fill="#F3E895" cx="163.833" cy="353.625" r="3.5"/><circle fill="#F3E895" cx="183.833" cy="353.625" r="3.5"/><circle fill="#F3E895" cx="173.833" cy="363.625" r="3.5"/><circle fill="#F3E895" cx="193.833" cy="363.625" r="3.5"/><circle fill="#F3E895" cx="183.833" cy="373.625" r="3.5"/><circle fill="#F3E895" cx="113.833" cy="284" r="3.5"/><circle fill="#F3E895" cx="133.833" cy="284" r="3.5"/><circle fill="#F3E895" cx="153.833" cy="284" r="3.5"/><circle fill="#F3E895" cx="173.833" cy="284" r="3.5"/><circle fill="#F3E895" cx="93.833" cy="203.688" r="3.5"/><circle fill="#F3E895" cx="103.833" cy="213.625" r="3.5"/><circle fill="#F3E895" cx="113.896" cy="223.625" r="3.5"/><circle fill="#F3E895" cx="123.833" cy="233.625" r="3.5"/><circle fill="#F3E895" cx="133.833" cy="243.625" r="3.5"/><circle fill="#F3E895" cx="143.708" cy="253.563" r="3.5"/><circle fill="#F3E895" cx="153.958" cy="263.625" r="3.5"/><circle fill="#F3E895" cx="163.833" cy="273.625" r="3.5"/><circle fill="#F3E895" cx="143.583" cy="273.751" r="3.5"/><circle fill="#F3E895" cx="123.833" cy="273.625" r="3.5"/><circle fill="#F3E895" cx="133.833" cy="263.625" r="3.5"/><circle fill="#F3E895" cx="93.833" cy="284" r="3.5"/><circle fill="#F3E895" cx="83.833" cy="273.625" r="3.5"/><circle fill="#F3E895" cx="74.083" cy="263.625" r="3.5"/><circle fill="#F3E895" cx="63.833" cy="253.563" r="3.5"/><circle fill="#F3E895" cx="53.833" cy="243.625" r="3.5"/><circle fill="#F3E895" cx="43.833" cy="233.625" r="3.5"/><circle fill="#F3E895" cx="33.833" cy="223.563" r="3.5"/><circle fill="#F3E895" cx="23.771" cy="213.688" r="3.5"/><circle fill="#F3E895" cx="103.833" cy="273.625" r="3.5"/><circle fill="#F3E895" cx="93.833" cy="263.625" r="3.5"/><circle fill="#F3E895" cx="113.833" cy="263.625" r="3.5"/><circle fill="#F3E895" cx="123.833" cy="253.563" r="3.5"/><circle fill="#F3E895" cx="103.833" cy="253.563" r="3.5"/><circle fill="#F3E895" cx="83.833" cy="253.563" r="3.5"/><circle fill="#F3E895" cx="113.896" cy="243.625" r="3.5"/><circle fill="#F3E895" cx="93.833" cy="243.625" r="3.5"/><circle fill="#F3E895" cx="73.833" cy="243.625" r="3.5"/><circle fill="#F3E895" cx="103.833" cy="233.625" r="3.5"/><circle fill="#F3E895" cx="83.833" cy="233.625" r="3.5"/><circle fill="#F3E895" cx="63.833" cy="233.625" r="3.5"/><circle fill="#F3E895" cx="93.833" cy="223.563" r="3.5"/><circle fill="#F3E895" cx="73.833" cy="223.563" r="3.5"/><circle fill="#F3E895" cx="53.833" cy="223.563" r="3.5"/><circle fill="#F3E895" cx="83.833" cy="213.625" r="3.5"/><circle fill="#F3E895" cx="63.833" cy="213.625" r="3.5"/><circle fill="#F3E895" cx="43.833" cy="213.625" r="3.5"/><circle fill="#F3E895" cx="73.833" cy="203.625" r="3.5"/><circle fill="#F3E895" cx="53.833" cy="203.688" r="3.5"/><circle fill="#F3E895" cx="33.833" cy="203.625" r="3.5"/><circle fill="#F3E895" cx="13.708" cy="203.688" r="3.5"/><circle fill="#F3E895" cx="193.552" cy="383.625" r="3.5"/></svg><svg id="pattern-hexagon" viewBox="-10 -10 119 119" width="119" height="119" y="7522" xmlns="http://www.w3.org/2000/svg"><style>.cest0{fill:#f7e895}</style><path class="cest0" d="M1.5 92.8v3.5l3 1.7 3-1.7v-3.5l-3-1.8zM21.5 92.8v3.5l3 1.7 3-1.7v-3.5l-3-1.8zM41.5 92.8v3.5l3 1.7 3-1.7v-3.5l-3-1.8zM61.5 92.8v3.5l3 1.7 3-1.7v-3.5l-3-1.8zM81.5 92.8v3.5l3 1.7 3-1.7v-3.5l-3-1.8zM11.5 82.8v3.5l3 1.7 3-1.7v-3.5l-3-1.8zM31.5 82.8v3.5l3 1.7 3-1.7v-3.5l-3-1.8zM51.5 82.8v3.5l3 1.7 3-1.7v-3.5l-3-1.8zM71.5 82.8v3.5l3 1.7 3-1.7v-3.5l-3-1.8zM91.5 82.8v3.5l3 1.7 3-1.7v-3.5l-3-1.8zM21.5 72.8v3.5l3 1.7 3-1.7v-3.5l-3-1.8zM41.5 72.8v3.5l3 1.7 3-1.7v-3.5l-3-1.8zM61.5 72.8v3.5l3 1.7 3-1.7v-3.5l-3-1.8zM81.5 72.8v3.5l3 1.7 3-1.7v-3.5l-3-1.8zM31.5 62.8v3.5l3 1.7 3-1.7v-3.5l-3-1.8zM51.5 62.8v3.5l3 1.7 3-1.7v-3.5l-3-1.8zM71.5 62.8v3.5l3 1.7 3-1.7v-3.5l-3-1.8zM91.5 62.8v3.5l3 1.7 3-1.7v-3.5l-3-1.8zM41.5 52.8v3.5l3 1.7 3-1.7v-3.5l-3-1.8zM61.5 52.8v3.5l3 1.7 3-1.7v-3.5l-3-1.8zM81.5 52.8v3.5l3 1.7 3-1.7v-3.5l-3-1.8zM51.5 42.8v3.5l3 1.7 3-1.7v-3.5l-3-1.8zM71.5 42.8v3.5l3 1.7 3-1.7v-3.5l-3-1.8zM91.5 42.8v3.5l3 1.7 3-1.7v-3.5l-3-1.8zM61.5 32.8v3.5l3 1.7 3-1.7v-3.5l-3-1.8zM81.5 32.8v3.5l3 1.7 3-1.7v-3.5l-3-1.8zM71.5 22.8v3.5l3 1.7 3-1.7v-3.5l-3-1.8zM91.5 22.8v3.5l3 1.7 3-1.7v-3.5l-3-1.8zM81.5 12.8v3.5l3 1.7 3-1.7v-3.5l-3-1.8zM91.5 2.8v3.5l3 1.7 3-1.7V2.8l-3-1.8z"/></svg><svg width="216.43" height="409.51" viewBox="-9.53 -11.79 216.43 409.51" id="pattern-hexagon-big" y="7641" xmlns="http://www.w3.org/2000/svg"><path fill="#F3E895" d="M.472 191.752v3.532L3.5 197l3.027-1.716v-3.532L3.5 189.936zM20.577 191.752v3.532L23.604 197l3.028-1.716v-3.532l-3.028-1.816zM40.639 191.752v3.532L43.667 197l3.027-1.716v-3.532l-3.027-1.816zM60.639 191.752v3.532L63.667 197l3.027-1.716v-3.532l-3.027-1.816zM80.639 191.752v3.532L83.667 197l3.027-1.716v-3.532l-3.027-1.816zM100.639 191.784v3.532l3.028 1.716 3.027-1.716v-3.532l-3.027-1.816zM120.638 191.752v3.532l3.029 1.716 3.027-1.716v-3.532l-3.027-1.816zM140.513 191.752v3.532l3.029 1.716 3.027-1.716v-3.532l-3.027-1.816zM160.638 191.752v3.532l3.029 1.716 3.027-1.716v-3.532l-3.027-1.816zM180.638 191.752v3.532l3.029 1.716 3.027-1.716v-3.532l-3.027-1.816zM10.639 180.746v3.531l3.028 1.717 3.027-1.717v-3.531l-3.027-1.816zM30.743 180.746v3.531l3.028 1.717 3.027-1.717v-3.531l-3.027-1.816zM50.806 180.746v3.531l3.027 1.717 3.028-1.717v-3.531l-3.028-1.816zM70.806 180.746v3.531l3.027 1.717 3.028-1.717v-3.531l-3.028-1.816zM90.806 180.746v3.531l3.027 1.717 3.028-1.717v-3.531l-3.028-1.816zM110.805 180.777v3.534l3.028 1.714 3.027-1.714v-3.534l-3.027-1.815zM130.805 180.746v3.531l3.028 1.717 3.027-1.717v-3.531l-3.027-1.816zM150.68 180.746v3.531l3.028 1.717 3.027-1.717v-3.531l-3.027-1.816zM170.805 180.746v3.531l3.028 1.717 3.027-1.717v-3.531l-3.027-1.816zM190.805 180.746v3.531l3.028 1.717 3.027-1.717v-3.531l-3.027-1.816zM20.586 169.667v3.532l3.028 1.716 3.027-1.716v-3.532l-3.027-1.815zM40.69 169.667v3.532l3.028 1.716 3.028-1.716v-3.532l-3.028-1.815zM60.753 169.667v3.532l3.028 1.716 3.027-1.716v-3.532l-3.027-1.815zM80.753 169.667v3.532l3.028 1.716 3.027-1.716v-3.532l-3.027-1.815zM100.753 169.667v3.532l3.028 1.716 3.027-1.716v-3.532l-3.027-1.815zM120.753 169.699v3.531l3.028 1.717 3.027-1.717v-3.531l-3.027-1.816zM140.751 169.667v3.532l3.03 1.716 3.027-1.716v-3.532l-3.027-1.815zM160.626 169.667v3.532l3.029 1.716 3.027-1.716v-3.532l-3.027-1.815zM180.751 169.667v3.532l3.029 1.716 3.027-1.716v-3.532l-3.027-1.815zM30.586 159.773v3.534l3.028 1.714 3.027-1.714v-3.534l-3.027-1.816zM50.69 159.773v3.534l3.028 1.714 3.028-1.714v-3.534l-3.028-1.816zM70.753 159.773v3.534l3.028 1.714 3.027-1.714v-3.534l-3.027-1.816zM90.753 159.773v3.534l3.028 1.714 3.027-1.714v-3.534l-3.027-1.816zM110.751 159.773v3.534l3.03 1.714 3.027-1.714v-3.534l-3.027-1.816zM130.753 159.807v3.531l3.028 1.717 3.027-1.717v-3.531l-3.027-1.818zM150.751 159.773v3.534l3.03 1.714 3.027-1.714v-3.534l-3.027-1.816zM170.626 159.773v3.534l3.03 1.714 3.027-1.714v-3.534l-3.027-1.816zM190.751 159.773v3.534l3.03 1.714 3.027-1.714v-3.534l-3.027-1.816zM40.68 149.794v3.532l3.028 1.716 3.027-1.716v-3.532l-3.027-1.815zM60.785 149.794v3.532l3.028 1.716 3.027-1.716v-3.532l-3.027-1.815zM80.847 149.794v3.532l3.028 1.716 3.027-1.716v-3.532l-3.027-1.815zM100.847 149.794v3.532l3.028 1.716 3.027-1.716v-3.532l-3.027-1.815zM120.846 149.794v3.532l3.029 1.716 3.028-1.716v-3.532l-3.028-1.815zM140.846 149.826v3.531l3.029 1.717 3.028-1.717v-3.531l-3.028-1.816zM160.846 149.794v3.532l3.029 1.716 3.026-1.716v-3.532l-3.026-1.815zM180.721 149.794v3.532l3.029 1.716 3.026-1.716v-3.532l-3.026-1.815zM50.671 139.793v3.532l3.028 1.716 3.027-1.716v-3.532l-3.027-1.816zM70.775 139.793v3.532l3.028 1.716 3.028-1.716v-3.532l-3.028-1.816zM90.838 139.793v3.532l3.028 1.716 3.027-1.716v-3.532l-3.027-1.816zM110.837 139.793v3.532l3.03 1.716 3.026-1.716v-3.532l-3.026-1.816zM130.837 139.793v3.532l3.03 1.716 3.026-1.716v-3.532l-3.026-1.816zM150.837 139.825v3.532l3.03 1.716 3.026-1.716v-3.532l-3.026-1.816zM170.835 139.793v3.532l3.032 1.716 3.026-1.716v-3.532l-3.026-1.816zM190.71 139.793v3.532l3.032 1.716 3.026-1.716v-3.532l-3.026-1.816zM60.639 129.867v3.531l3.028 1.717 3.027-1.717v-3.531l-3.027-1.816zM80.743 129.867v3.531l3.028 1.717 3.027-1.717v-3.531l-3.027-1.816zM100.806 129.867v3.531l3.027 1.717 3.028-1.717v-3.531l-3.028-1.816zM120.805 129.867v3.531l3.028 1.717 3.029-1.717v-3.531l-3.029-1.816zM140.805 129.867v3.531l3.028 1.717 3.029-1.717v-3.531l-3.029-1.816zM160.805 129.898v3.534l3.028 1.714 3.029-1.714v-3.534l-3.029-1.815zM180.805 129.867v3.531l3.028 1.717 3.027-1.717v-3.531l-3.027-1.816zM70.514 119.793v3.532l3.028 1.716 3.027-1.716v-3.532l-3.027-1.816zM90.618 119.793v3.532l3.028 1.716 3.027-1.716v-3.532l-3.027-1.816zM110.68 119.793v3.532l3.028 1.716 3.028-1.716v-3.532l-3.028-1.816zM130.68 119.793v3.532l3.028 1.716 3.028-1.716v-3.532l-3.028-1.816zM150.68 119.793v3.532l3.028 1.716 3.028-1.716v-3.532l-3.028-1.816zM170.681 119.825v3.532l3.027 1.716 3.028-1.716v-3.532l-3.028-1.816zM190.679 119.793v3.532l3.029 1.716 3.028-1.716v-3.532l-3.028-1.816zM80.63 109.711v3.532l3.028 1.716 3.028-1.716v-3.532l-3.028-1.816zM100.735 109.711v3.532l3.028 1.716 3.028-1.716v-3.532l-3.028-1.816zM120.796 109.711v3.532l3.03 1.716 3.026-1.716v-3.532l-3.026-1.816zM140.796 109.711v3.532l3.03 1.716 3.026-1.716v-3.532l-3.026-1.816zM160.796 109.711v3.532l3.03 1.716 3.026-1.716v-3.532l-3.026-1.816zM180.796 109.743v3.532l3.03 1.716 3.026-1.716v-3.532l-3.026-1.816zM90.556 99.419v3.532l3.028 1.717 3.027-1.717v-3.532l-3.027-1.815zM110.662 99.419v3.532l3.026 1.717 3.026-1.717v-3.532l-3.026-1.815zM130.723 99.419v3.532l3.027 1.717 3.028-1.717v-3.532l-3.028-1.815zM150.723 99.419v3.532l3.027 1.717 3.028-1.717v-3.532l-3.028-1.815zM170.723 99.419v3.532l3.027 1.717 3.028-1.717v-3.532l-3.028-1.815zM190.723 99.452v3.532l3.027 1.715 3.028-1.715v-3.532l-3.028-1.817zM100.639 89.585v3.532l3.028 1.716 3.027-1.716v-3.532l-3.027-1.816zM120.744 89.585v3.532l3.028 1.716 3.026-1.716v-3.532l-3.026-1.816zM140.806 89.585v3.532l3.027 1.716 3.029-1.716v-3.532l-3.029-1.816zM160.806 89.585v3.532l3.027 1.716 3.028-1.716v-3.532l-3.028-1.816zM180.806 89.585v3.532l3.027 1.716 3.028-1.716v-3.532l-3.028-1.816zM110.598 79.668v3.533l3.027 1.716 3.028-1.716v-3.533l-3.028-1.816zM130.703 79.668v3.533l3.027 1.716 3.027-1.716v-3.533l-3.027-1.816zM150.764 79.668v3.533l3.028 1.716 3.028-1.716v-3.533l-3.028-1.816zM170.765 79.668v3.533l3.027 1.716 3.028-1.716v-3.533l-3.028-1.816zM190.765 79.668v3.533l3.027 1.716 3.028-1.716v-3.533l-3.028-1.816zM120.514 69.752v3.533L123.542 75l3.027-1.715v-3.533l-3.027-1.816zM140.619 69.752v3.533L143.647 75l3.026-1.715v-3.533l-3.026-1.816zM160.681 69.752v3.533L163.708 75l3.029-1.715v-3.533l-3.029-1.816zM180.681 69.752v3.533L183.708 75l3.029-1.715v-3.533l-3.029-1.816zM130.587 59.71v3.533l3.03 1.715 3.026-1.715V59.71l-3.026-1.816zM150.692 59.71v3.533l3.026 1.715 3.03-1.715V59.71l-3.03-1.816zM170.753 59.71v3.533l3.03 1.715 3.026-1.715V59.71l-3.026-1.816zM190.753 59.71v3.533l3.03 1.715 3.026-1.715V59.71l-3.026-1.816zM140.513 49.71v3.533l3.029 1.715 3.026-1.715V49.71l-3.026-1.816zM160.619 49.71v3.533l3.027 1.715 3.027-1.715V49.71l-3.027-1.816zM180.68 49.71v3.533l3.028 1.715 3.028-1.715V49.71l-3.028-1.816zM150.68 39.752v3.533L153.708 45l3.027-1.715v-3.533l-3.027-1.816zM170.785 39.752v3.533L173.813 45l3.026-1.715v-3.533l-3.026-1.816zM190.847 39.752v3.533L193.875 45l3.027-1.715v-3.533l-3.027-1.816zM160.598 29.71v3.532l3.028 1.716 3.028-1.716V29.71l-3.028-1.816zM180.703 29.71v3.532l3.027 1.716 3.027-1.716V29.71l-3.027-1.816zM170.472 19.835v3.533l3.028 1.715 3.027-1.715v-3.533l-3.027-1.816zM190.578 19.835v3.533l3.027 1.715 3.027-1.715v-3.533l-3.027-1.816zM180.514 9.793v3.532l3.028 1.716 3.028-1.716V9.793l-3.028-1.816zM190.357.025v3.532l3.027 1.716 3.028-1.716V.025l-3.028-1.817zM13.563 206.998l3.027-1.816v-3.532l-3.027-1.716-3.028 1.716v3.532zM33.667 206.998l3.027-1.816v-3.532l-3.027-1.716-3.028 1.716v3.532zM53.729 206.998l3.028-1.816v-3.532l-3.028-1.716-3.027 1.716v3.532zM73.729 206.998l3.028-1.816v-3.532l-3.028-1.716-3.027 1.716v3.532zM93.729 206.998l3.028-1.816v-3.532l-3.028-1.716-3.027 1.716v3.532zM113.73 206.965l3.025-1.815v-3.533l-3.025-1.715-3.029 1.715v3.533zM133.73 206.998l3.025-1.816v-3.532l-3.025-1.716-3.029 1.716v3.532zM153.605 206.998l3.025-1.816v-3.532l-3.025-1.716-3.029 1.716v3.532zM173.73 206.998l3.025-1.816v-3.532l-3.025-1.716-3.029 1.716v3.532zM193.73 206.998l3.025-1.816v-3.532l-3.025-1.716-3.029 1.716v3.532zM23.51 218.076l3.027-1.816v-3.531l-3.027-1.717-3.028 1.717v3.531zM43.614 218.076l3.028-1.816v-3.531l-3.028-1.717-3.028 1.717v3.531zM63.677 218.076l3.027-1.816v-3.531l-3.027-1.717-3.028 1.717v3.531zM83.677 218.076l3.027-1.816v-3.531l-3.027-1.717-3.028 1.717v3.531zM103.677 218.076l3.028-1.816v-3.531l-3.028-1.717-3.027 1.717v3.531zM123.677 218.045l3.028-1.816v-3.532l-3.028-1.717-3.027 1.717v3.532zM143.677 218.076l3.028-1.816v-3.531l-3.028-1.717-3.029 1.717v3.531zM163.55 218.076l3.028-1.816v-3.531l-3.028-1.717-3.027 1.717v3.531zM183.675 218.076l3.028-1.816v-3.531l-3.028-1.717-3.027 1.717v3.531zM33.51 227.971l3.027-1.817v-3.533l-3.027-1.715-3.028 1.715v3.533zM53.614 227.971l3.028-1.817v-3.533l-3.028-1.715-3.028 1.715v3.533zM73.677 227.971l3.027-1.817v-3.533l-3.027-1.715-3.028 1.715v3.533zM93.677 227.971l3.027-1.817v-3.533l-3.027-1.715-3.028 1.715v3.533zM113.677 227.971l3.028-1.817v-3.533l-3.028-1.715-3.029 1.715v3.533zM133.677 227.938l3.028-1.817v-3.531l-3.028-1.717-3.027 1.717v3.531zM153.677 227.971l3.028-1.817v-3.533l-3.028-1.715-3.029 1.715v3.533zM173.552 227.971l3.028-1.817v-3.533l-3.028-1.715-3.029 1.715v3.533zM193.677 227.971l3.028-1.817v-3.533l-3.028-1.715-3.029 1.715v3.533zM43.604 237.949l3.027-1.816v-3.531l-3.027-1.717-3.028 1.717v3.531zM63.709 237.949l3.027-1.816v-3.531l-3.027-1.717-3.028 1.717v3.531zM83.771 237.949l3.027-1.816v-3.531l-3.027-1.717-3.028 1.717v3.531zM103.771 237.949l3.027-1.816v-3.531l-3.027-1.717-3.027 1.717v3.531zM123.771 237.949l3.027-1.816v-3.531l-3.027-1.717-3.029 1.717v3.531zM143.771 237.918l3.027-1.816v-3.532l-3.027-1.716-3.029 1.716v3.532zM163.771 237.949l3.025-1.816v-3.531l-3.025-1.717-3.029 1.717v3.531zM183.646 237.949l3.025-1.816v-3.531l-3.025-1.717-3.029 1.717v3.531zM53.595 247.951l3.027-1.816v-3.533l-3.027-1.715-3.028 1.715v3.533zM73.699 247.951l3.028-1.816v-3.533l-3.028-1.715-3.028 1.715v3.533zM93.762 247.951l3.027-1.816v-3.533l-3.027-1.715-3.028 1.715v3.533zM113.763 247.951l3.026-1.816v-3.533l-3.026-1.715-3.029 1.715v3.533zM133.763 247.951l3.026-1.816v-3.533l-3.026-1.715-3.029 1.715v3.533zM153.763 247.918l3.026-1.816v-3.532l-3.026-1.716-3.029 1.716v3.532zM173.763 247.951l3.026-1.816v-3.533l-3.026-1.715-3.031 1.715v3.533zM193.638 247.951l3.026-1.816v-3.533l-3.026-1.715-3.031 1.715v3.533zM63.563 257.877l3.027-1.816v-3.532l-3.027-1.716-3.028 1.716v3.532zM83.667 257.877l3.027-1.816v-3.532l-3.027-1.716-3.028 1.716v3.532zM103.73 257.877l3.027-1.816v-3.532l-3.027-1.716-3.027 1.716v3.532zM123.73 257.877l3.027-1.816v-3.532l-3.027-1.716-3.029 1.716v3.532zM143.73 257.877l3.027-1.816v-3.532l-3.027-1.716-3.029 1.716v3.532zM163.73 257.844l3.027-1.815v-3.533l-3.027-1.715-3.029 1.715v3.533zM183.73 257.877l3.025-1.816v-3.532l-3.025-1.716-3.029 1.716v3.532zM73.438 267.951l3.027-1.816v-3.533l-3.027-1.715-3.028 1.715v3.533zM93.542 267.951l3.027-1.816v-3.533l-3.027-1.715-3.028 1.715v3.533zM113.605 267.951l3.027-1.816v-3.533l-3.027-1.715-3.029 1.715v3.533zM133.605 267.951l3.027-1.816v-3.533l-3.027-1.715-3.029 1.715v3.533zM153.605 267.951l3.027-1.816v-3.533l-3.027-1.715-3.029 1.715v3.533zM173.605 267.918l3.027-1.816v-3.532l-3.027-1.716-3.027 1.716v3.532zM193.605 267.951l3.027-1.816v-3.533l-3.027-1.715-3.029 1.715v3.533zM83.554 278.033l3.028-1.816v-3.533l-3.028-1.715-3.028 1.715v3.533zM103.66 278.033l3.027-1.816v-3.533l-3.027-1.715-3.03 1.715v3.533zM123.722 278.033l3.026-1.816v-3.533l-3.026-1.715-3.029 1.715v3.533zM143.722 278.033l3.026-1.816v-3.533l-3.026-1.715-3.029 1.715v3.533zM163.722 278.033l3.026-1.816v-3.533l-3.026-1.715-3.029 1.715v3.533zM183.722 278l3.026-1.816v-3.532l-3.026-1.716-3.029 1.716v3.532zM93.48 288.324l3.027-1.816v-3.531l-3.027-1.717-3.028 1.717v3.531zM113.583 288.324l3.028-1.816v-3.531l-3.028-1.717-3.025 1.717v3.531zM133.646 288.324l3.027-1.816v-3.531l-3.027-1.717-3.027 1.717v3.531zM153.646 288.324l3.027-1.816v-3.531l-3.027-1.717-3.027 1.717v3.531zM173.646 288.324l3.027-1.816v-3.531l-3.027-1.717-3.027 1.717v3.531zM193.646 288.293l3.027-1.818v-3.532l-3.027-1.714-3.027 1.714v3.532zM103.564 298.158l3.025-1.816v-3.531l-3.025-1.717-3.029 1.717v3.531zM123.667 298.158l3.028-1.816v-3.531l-3.028-1.717-3.027 1.717v3.531zM143.73 298.158l3.027-1.816v-3.531l-3.027-1.717-3.027 1.717v3.531zM163.73 298.158l3.027-1.816v-3.531l-3.027-1.717-3.027 1.717v3.531zM183.73 298.158l3.027-1.816v-3.531l-3.027-1.717-3.027 1.717v3.531zM113.521 308.074l3.027-1.814v-3.533l-3.027-1.717-3.027 1.717v3.533zM133.626 308.074l3.028-1.814v-3.533l-3.028-1.717-3.027 1.717v3.533zM153.689 308.074l3.027-1.814v-3.533l-3.027-1.717-3.029 1.717v3.533zM173.689 308.074l3.027-1.814v-3.533l-3.027-1.717-3.027 1.717v3.533zM193.689 308.074l3.027-1.814v-3.533l-3.027-1.717-3.027 1.717v3.533zM123.439 317.99l3.025-1.814v-3.533l-3.025-1.715-3.029 1.715v3.533zM143.542 317.99l3.028-1.814v-3.533l-3.028-1.715-3.027 1.715v3.533zM163.605 317.99l3.027-1.814v-3.533l-3.027-1.715-3.027 1.715v3.533zM183.605 317.99l3.027-1.814v-3.533l-3.027-1.715-3.027 1.715v3.533zM133.513 328.033l3.026-1.816v-3.533l-3.026-1.715-3.029 1.715v3.533zM153.615 328.033l3.029-1.816v-3.533l-3.029-1.715-3.028 1.715v3.533zM173.679 328.033l3.026-1.816v-3.533l-3.026-1.715-3.029 1.715v3.533zM193.679 328.033l3.026-1.816v-3.533l-3.026-1.715-3.029 1.715v3.533zM143.439 338.033l3.025-1.816v-3.533l-3.025-1.715-3.029 1.715v3.533zM163.542 338.033l3.028-1.816v-3.533l-3.028-1.715-3.027 1.715v3.533zM183.605 338.033l3.027-1.816v-3.533l-3.027-1.715-3.029 1.715v3.533zM153.605 347.99l3.025-1.814v-3.533l-3.025-1.715-3.029 1.715v3.533zM173.708 347.99l3.028-1.814v-3.533l-3.028-1.715-3.027 1.715v3.533zM193.771 347.99l3.027-1.814v-3.533l-3.027-1.715-3.027 1.715v3.533zM163.523 358.033l3.027-1.816v-3.531l-3.027-1.717-3.029 1.717v3.531zM183.626 358.033l3.028-1.816v-3.531l-3.028-1.717-3.027 1.717v3.531zM173.396 367.908l3.027-1.816v-3.533l-3.027-1.715-3.027 1.715v3.533zM193.501 367.908l3.028-1.816v-3.533l-3.028-1.715-3.027 1.715v3.533zM183.439 377.949l3.027-1.814v-3.533l-3.027-1.715-3.029 1.715v3.533zM193.281 387.719l3.027-1.817v-3.533l-3.027-1.715-3.028 1.715v3.533z"/></svg><svg id="pattern-square" viewBox="-10 -10 515 515" width="515" height="515" y="8051" xmlns="http://www.w3.org/2000/svg"><style>.cgst0{fill:#f7e895}</style><path class="cgst0" d="M7.5 457.5h30v30h-30zM107.5 457.5h30v30h-30zM207.5 457.5h30v30h-30zM307.5 457.5h30v30h-30zM407.5 457.5h30v30h-30zM57.5 407.5h30v30h-30zM157.5 407.5h30v30h-30zM257.5 407.5h30v30h-30zM357.5 407.5h30v30h-30zM457.5 407.5h30v30h-30zM107.5 357.5h30v30h-30zM207.5 357.5h30v30h-30zM307.5 357.5h30v30h-30zM407.5 357.5h30v30h-30zM157.5 307.5h30v30h-30zM257.5 307.5h30v30h-30zM357.5 307.5h30v30h-30zM457.5 307.5h30v30h-30zM207.5 257.5h30v30h-30zM307.5 257.5h30v30h-30zM407.5 257.5h30v30h-30zM257.5 207.5h30v30h-30zM357.5 207.5h30v30h-30zM457.5 207.5h30v30h-30zM307.5 157.5h30v30h-30zM407.5 157.5h30v30h-30zM357.5 107.5h30v30h-30zM407.5 57.5h30v30h-30zM457.5 7.5h30v30h-30zM457.5 107.5h30v30h-30z"/></svg><svg width="217.54" height="407.08" viewBox="-10 -10 217.54 407.08" id="pattern-square-big" y="8566" xmlns="http://www.w3.org/2000/svg"><path fill="#F3E895" d="M50.167 140h6.999v7h-6.999zM60.167 130.063h6.999v7h-6.999zM40.167 150h6.999v7h-6.999zM30.167 160.063h6.999v7h-6.999zM20.104 169.938h6.999v7h-6.999zM0 190h6.999v7H0zM20.104 190h6.999v7h-6.999zM70.036 120h6.999v7h-6.999zM80.167 110h6.999v7h-6.999zM90.167 99.625h6.999v7h-6.999zM100.037 90h6.999v7h-6.999zM110.167 79.917h6.999v7h-6.999zM120.166 70h6.999v7h-6.999zM130.167 60h6.999v7h-6.999zM140.041 50.002h6.999v7h-6.999zM150.291 40.002h6.999v7h-6.999zM160.166 30h6.999v7h-6.999zM170.041 20.002h6.999v7h-6.999zM180.167 10.002h6.999v7h-6.999zM189.885 0h6.999v7h-6.999zM40.167 190h6.999v7h-6.999zM60.167 190h6.999v7h-6.999zM80.167 190h6.999v7h-6.999zM100.249 189.87h6.999v7h-6.999zM120.166 190h6.999v7h-6.999zM140.042 189.87h6.999v7h-6.999zM160.167 190h6.999v7h-6.999zM180.166 190h6.999v7h-6.999zM40.438 169.814h6.999v7h-6.999zM60.542 169.814h6.999v7h-6.999zM80.604 169.814h6.999v7h-6.999zM100.604 169.814h6.998v7h-6.998zM120.604 169.814h7v7h-7zM140.687 169.686h7v7h-7zM160.604 169.814h6.998v7h-6.998zM180.479 169.686h6.998v7h-6.998zM50.375 160.061h6.999v7h-6.999zM70.479 160.061h6.999v7h-6.999zM90.542 160.061h6.999v7h-6.999zM110.541 160.061h7v7h-7zM130.541 160.061h7v7h-7zM150.624 159.932h6.999v7h-6.999zM170.541 160.061h6.999v7h-6.999zM190.417 159.932h6.999v7h-6.999zM60.375 150.188h6.999v7h-6.999zM80.479 150.188h6.999v7h-6.999zM100.541 150.188h7v7h-7zM120.541 150.188h7v7h-7zM140.541 150.188h7v7h-7zM160.624 150.059h6.999v7h-6.999zM180.541 150.188h6.999v7h-6.999zM70.188 140h6.999v7h-6.999zM90.292 140h6.999v7h-6.999zM110.354 140h7v7h-7zM130.354 140h7v7h-7zM150.354 140h7v7h-7zM170.437 139.87h7v7h-7zM190.354 140h6.998v7h-6.998zM80.188 130.126h6.999v7h-6.999zM100.292 130.126h6.999v7h-6.999zM120.354 130.126h7v7h-7zM140.354 130.126h7v7h-7zM160.354 130.126h7v7h-7zM180.437 129.996h7v7h-7zM90.188 120.125h6.999v7h-6.999zM110.291 120.125h7v7h-7zM130.354 120.125h7v7h-7zM150.354 120.125h7v7h-7zM170.354 120.125h7v7h-7zM190.437 119.995h7v7h-7zM100.375 109.875h6.999v7h-6.999zM120.479 109.875h7v7h-7zM140.541 109.875h7v7h-7zM160.541 109.875h7v7h-7zM180.541 109.875h7v7h-7zM110.188 99.625h6.998v7h-6.998zM130.291 99.625h7v7h-7zM150.354 99.625h7v7h-7zM170.354 99.625h7v7h-7zM190.354 99.625h7v7h-7zM120.188 89.813h6.998v7h-6.998zM140.291 89.813h7v7h-7zM160.354 89.813h7v7h-7zM180.354 89.813h7v7h-7zM130.125 79.875h6.999v7h-6.999zM150.229 79.875h7v7h-7zM170.291 79.875h7v7h-7zM190.291 79.875h7v7h-7zM140.25 70h6.999v7h-6.999zM160.354 70h7v7h-7zM180.416 70h7v7h-7zM150.375 60.125h6.999v7h-6.999zM170.479 60.125h7v7h-7zM190.541 60.125h7v7h-7zM160.218 50h6.999v7h-6.999zM180.321 50h6.998v7h-6.998zM170 40h6.999v7H170zM189.884 40.002h7v7h-7zM180.063 29.938h6.998v7h-6.998zM189.885 20.002h7v7h-7zM10.188 179.813h6.999v7h-6.999zM30.292 179.813h6.999v7h-6.999zM50.354 179.813h6.999v7h-6.999zM70.354 179.813h6.999v7h-6.999zM90.354 179.813h7v7h-7zM110.437 179.684h7v7h-7zM130.354 179.813h6.998v7h-6.998zM150.229 179.684h6.998v7h-6.998zM170.354 179.813h6.998v7h-6.998zM190.354 179.813h6.998v7h-6.998zM50.167 240.078h6.999v7h-6.999zM60.167 250.016h6.999v7h-6.999zM40.167 230.078h6.999v7h-6.999zM30.167 220.016h6.999v7h-6.999zM20.104 210.141h6.999v7h-6.999zM70.036 260.078h6.999v7h-6.999zM80.167 270.078h6.999v7h-6.999zM90.167 280.453h6.999v7h-6.999zM100.037 290.078h6.999v7h-6.999zM110.167 300.161h6.999v7h-6.999zM120.166 310.078h6.999v7h-6.999zM130.167 320.078h6.999v7h-6.999zM140.041 330.076h6.999v7h-6.999zM150.291 340.076h6.999v7h-6.999zM160.166 350.078h6.999v7h-6.999zM170.041 360.076h6.999v7h-6.999zM180.167 370.076h6.999v7h-6.999zM189.885 380.078h6.999v7h-6.999zM40.438 210.264h6.999v7h-6.999zM60.542 210.264h6.999v7h-6.999zM80.604 210.264h6.998v7h-6.998zM100.604 210.264h6.998v7h-6.998zM120.604 210.264h7v7h-7zM140.687 210.393h7v7h-7zM160.604 210.264h6.998v7h-6.998zM180.479 210.393h6.998v7h-6.998zM50.375 220.018h6.999v7h-6.999zM70.479 220.018h6.999v7h-6.999zM90.542 220.018h6.999v7h-6.999zM110.541 220.018h7v7h-7zM130.541 220.018h7v7h-7zM150.624 220.146h6.999v7h-6.999zM170.541 220.018h6.999v7h-6.999zM190.417 220.146h6.999v7h-6.999zM60.375 229.891h6.999v7h-6.999zM80.479 229.891h6.998v7h-6.998zM100.541 229.891h7v7h-7zM120.541 229.891h7v7h-7zM140.541 229.891h7v7h-7zM160.624 230.02h6.999v7h-6.999zM180.541 229.891h6.999v7h-6.999zM70.188 240.078h6.999v7h-6.999zM90.292 240.078h6.999v7h-6.999zM110.354 240.078h7v7h-7zM130.354 240.078h7v7h-7zM150.354 240.078h7v7h-7zM170.437 240.208h7v7h-7zM190.354 240.078h6.998v7h-6.998zM80.188 249.952h6.998v7h-6.998zM100.292 249.952h6.999v7h-6.999zM120.354 249.952h7v7h-7zM140.354 249.952h7v7h-7zM160.354 249.952h7v7h-7zM180.437 250.082h7v7h-7zM90.188 259.953h6.998v7h-6.998zM110.291 259.953h7v7h-7zM130.354 259.953h7v7h-7zM150.354 259.953h7v7h-7zM170.354 259.953h7v7h-7zM190.437 260.083h7v7h-7zM100.375 270.203h6.999v7h-6.999zM120.479 270.203h7v7h-7zM140.541 270.203h7v7h-7zM160.541 270.203h7v7h-7zM180.541 270.203h7v7h-7zM110.188 280.453h6.998v7h-6.998zM130.291 280.453h7v7h-7zM150.354 280.453h7v7h-7zM170.354 280.453h7v7h-7zM190.354 280.453h7v7h-7zM120.188 290.266h6.998v7h-6.998zM140.291 290.266h7v7h-7zM160.354 290.266h7v7h-7zM180.354 290.266h7v7h-7zM130.125 300.203h6.999v7h-6.999zM150.229 300.203h7v7h-7zM170.291 300.203h7v7h-7zM190.291 300.203h7v7h-7zM140.25 310.078h6.999v7h-6.999zM160.354 310.078h7v7h-7zM180.416 310.078h7v7h-7zM150.375 319.953h6.999v7h-6.999zM170.479 319.953h7v7h-7zM190.541 319.953h7v7h-7zM160.218 330.078h6.999v7h-6.999zM180.321 330.078h6.998v7h-6.998zM170 340.078h6.999v7H170zM189.884 340.076h7v7h-7zM180.063 350.141h6.998v7h-6.998zM189.885 360.076h7v7h-7zM10.188 200.266h6.999v7h-6.999zM30.292 200.266h6.999v7h-6.999zM50.354 200.266h6.999v7h-6.999zM70.354 200.266h6.999v7h-6.999zM90.354 200.266h7v7h-7zM110.437 200.395h7v7h-7zM130.354 200.266h6.998v7h-6.998zM150.229 200.395h6.998v7h-6.998zM170.354 200.266h6.998v7h-6.998zM190.354 200.266h6.998v7h-6.998z"/></svg><svg width="119" height="119" viewBox="-10 -10 119 119" id="pattern-triangle" y="8974" xmlns="http://www.w3.org/2000/svg"><path fill="#F7E895" d="M1 97.531l3.5-6.062L8 97.531zM21 97.531l3.5-6.062 3.5 6.062zM41 97.531l3.5-6.062 3.5 6.062zM61 97.531l3.5-6.062 3.5 6.062zM81 97.531l3.5-6.062 3.5 6.062zM11 87.531l3.5-6.062 3.5 6.062zM31 87.531l3.5-6.062 3.5 6.062zM51 87.531l3.5-6.062 3.5 6.062zM71 87.531l3.5-6.062 3.5 6.062zM91 87.531l3.5-6.062 3.5 6.062zM21 77.531l3.5-6.062 3.5 6.062zM41 77.531l3.5-6.062 3.5 6.062zM61 77.531l3.5-6.062 3.5 6.062zM81 77.531l3.5-6.062 3.5 6.062zM31 67.531l3.5-6.062 3.5 6.062zM51 67.531l3.5-6.062 3.5 6.062zM71 67.531l3.5-6.062 3.5 6.062zM91 67.531l3.5-6.062 3.5 6.062zM41 57.531l3.5-6.062 3.5 6.062zM61 57.531l3.5-6.062 3.5 6.062zM81 57.531l3.5-6.062 3.5 6.062zM51 47.531l3.5-6.062 3.5 6.062zM71 47.531l3.5-6.062 3.5 6.062zM91 47.531l3.5-6.062 3.5 6.062zM61 37.531l3.5-6.062 3.5 6.062zM81 37.531l3.5-6.062 3.5 6.062zM71 27.531l3.5-6.062 3.5 6.062zM81 17.531l3.5-6.062 3.5 6.062zM91 7.531l3.5-6.062L98 7.531zM91 27.531l3.5-6.062 3.5 6.062z"/></svg><svg width="217.68" height="410.13" viewBox="-10 -10 217.68 410.13" id="pattern-triangle-big" y="9093" xmlns="http://www.w3.org/2000/svg"><path fill="#F3E895" d="M0 196.531l3.5-6.062 3.5 6.062zM20.104 196.531l3.5-6.062 3.5 6.062zM40.167 196.531l3.5-6.062 3.5 6.062zM60.167 196.531l3.5-6.062 3.5 6.062zM80.167 196.531l3.5-6.062 3.5 6.062zM100.167 196.531l3.5-6.062 3.5 6.062zM120.167 196.531l3.5-6.062 3.5 6.062zM140.042 196.531l3.5-6.062 3.5 6.062zM160.167 196.531l3.5-6.062 3.5 6.062zM180.167 196.531l3.5-6.062 3.5 6.062zM10.03 187.594l3.5-6.063 3.5 6.063zM30.134 187.594l3.5-6.063 3.5 6.063zM50.197 187.594l3.5-6.063 3.5 6.063zM70.197 187.594l3.5-6.063 3.5 6.063zM90.197 187.594l3.5-6.063 3.5 6.063zM110.197 187.594l3.5-6.063 3.5 6.063zM130.197 187.594l3.5-6.063 3.5 6.063zM150.072 187.594l3.5-6.063 3.5 6.063zM170.197 187.594l3.5-6.063 3.5 6.063zM190.197 187.594l3.5-6.063 3.5 6.063zM20.25 176.406l3.5-6.062 3.5 6.062zM40.354 176.406l3.5-6.062 3.5 6.062zM60.417 176.406l3.5-6.062 3.5 6.062zM80.417 176.406l3.5-6.062 3.5 6.062zM100.417 176.406l3.5-6.062 3.5 6.062zM120.417 176.406l3.5-6.062 3.5 6.062zM140.417 176.406l3.5-6.062 3.5 6.062zM160.292 176.406l3.5-6.062 3.5 6.062zM180.417 176.406l3.5-6.062 3.5 6.062zM30.125 166.594l3.5-6.063 3.5 6.063zM50.229 166.594l3.5-6.063 3.5 6.063zM70.292 166.594l3.5-6.063 3.5 6.063zM90.292 166.594l3.5-6.063 3.5 6.063zM110.292 166.594l3.5-6.063 3.5 6.063zM130.292 166.594l3.5-6.063 3.5 6.063zM150.292 166.594l3.5-6.063 3.5 6.063zM170.167 166.594l3.5-6.063 3.5 6.063zM190.292 166.594l3.5-6.063 3.5 6.063zM40.125 156.531l3.5-6.062 3.5 6.062zM60.229 156.531l3.5-6.062 3.5 6.062zM80.292 156.531l3.5-6.062 3.5 6.062zM100.292 156.531l3.5-6.062 3.5 6.062zM120.292 156.531l3.5-6.062 3.5 6.062zM140.292 156.531l3.5-6.062 3.5 6.062zM160.292 156.531l3.5-6.062 3.5 6.062zM180.167 156.531l3.5-6.062 3.5 6.062zM50.188 146.531l3.5-6.062 3.5 6.062zM70.292 146.531l3.5-6.062 3.5 6.062zM90.354 146.531l3.5-6.062 3.5 6.062zM110.354 146.531l3.5-6.062 3.5 6.062zM130.354 146.531l3.5-6.062 3.5 6.062zM150.354 146.531l3.5-6.062 3.5 6.062zM170.354 146.531l3.5-6.062 3.5 6.062zM190.229 146.531l3.5-6.062 3.5 6.062zM60.188 136.656l3.5-6.062 3.5 6.062zM80.292 136.656l3.5-6.062 3.5 6.062zM100.354 136.656l3.5-6.062 3.5 6.062zM120.354 136.656l3.5-6.062 3.5 6.062zM140.354 136.656l3.5-6.062 3.5 6.062zM160.354 136.656l3.5-6.062 3.5 6.062zM180.354 136.656l3.5-6.062 3.5 6.062zM70.25 126.531l3.5-6.062 3.5 6.062zM90.354 126.531l3.5-6.062 3.5 6.062zM110.417 126.531l3.5-6.062 3.5 6.062zM130.417 126.531l3.5-6.062 3.5 6.062zM150.417 126.531l3.5-6.062 3.5 6.062zM170.417 126.531l3.5-6.062 3.5 6.062zM190.417 126.531l3.5-6.062 3.5 6.062zM80.25 116.219l3.5-6.063 3.5 6.063zM100.354 116.219l3.5-6.063 3.5 6.063zM120.417 116.219l3.5-6.063 3.5 6.063zM140.417 116.219l3.5-6.063 3.5 6.063zM160.417 116.219l3.5-6.063 3.5 6.063zM180.417 116.219l3.5-6.063 3.5 6.063zM90.375 106.156l3.5-6.062 3.5 6.062zM110.479 106.156l3.5-6.062 3.5 6.062zM130.542 106.156l3.5-6.062 3.5 6.062zM150.542 106.156l3.5-6.062 3.5 6.062zM170.542 106.156l3.5-6.062 3.5 6.062zM190.542 106.156l3.5-6.062 3.5 6.062zM100.25 96.448l3.5-6.062 3.5 6.062zM120.354 96.448l3.5-6.062 3.5 6.062zM140.417 96.448l3.5-6.062 3.5 6.062zM160.417 96.448l3.5-6.062 3.5 6.062zM180.417 96.448l3.5-6.062 3.5 6.062zM110.125 86.448l3.5-6.062 3.5 6.062zM130.229 86.448l3.5-6.062 3.5 6.062zM150.292 86.448l3.5-6.062 3.5 6.062zM170.292 86.448l3.5-6.062 3.5 6.062zM190.292 86.448l3.5-6.062 3.5 6.062zM120.313 76.531l3.5-6.062 3.5 6.062zM140.417 76.531l3.5-6.062 3.5 6.062zM160.479 76.531l3.5-6.062 3.5 6.062zM180.479 76.531l3.5-6.062 3.5 6.062zM130.063 66.531l3.5-6.062 3.5 6.062zM150.167 66.531l3.5-6.062 3.5 6.062zM170.229 66.531l3.5-6.062 3.5 6.062zM190.229 66.531l3.5-6.062 3.5 6.062zM140 56.533l3.5-6.062 3.5 6.062zM160.104 56.533l3.5-6.062 3.5 6.062zM180.167 56.533l3.5-6.062 3.5 6.062zM150.396 46.5l3.5-6.062 3.5 6.062zM170.5 46.5l3.5-6.062 3.5 6.062zM190.562 46.5l3.5-6.062 3.5 6.062zM159.75 36.531l3.5-6.062 3.5 6.062zM179.854 36.531l3.5-6.062 3.5 6.062zM170.198 26.533l3.5-6.062 3.5 6.062zM190.301 26.533l3.5-6.062 3.5 6.062zM180.167 16.533l3.5-6.062 3.5 6.062zM189.884 6.063l3.5-6.063 3.5 6.063zM10.151 208.594l3.5-6.063 3.5 6.063zM30.254 208.594l3.5-6.063 3.5 6.063zM50.318 208.594l3.5-6.063 3.5 6.063zM70.318 208.594l3.5-6.063 3.5 6.063zM90.318 208.594l3.5-6.063 3.5 6.063zM110.317 208.594l3.5-6.063 3.5 6.063zM130.317 208.594l3.5-6.063 3.5 6.063zM150.192 208.594l3.5-6.063 3.5 6.063zM170.317 208.594l3.5-6.063 3.5 6.063zM190.317 208.594l3.5-6.063 3.5 6.063zM20.37 219.781l3.5-6.062 3.5 6.062zM40.475 219.781l3.5-6.062 3.5 6.062zM60.537 219.781l3.5-6.062 3.5 6.062zM80.537 219.781l3.5-6.062 3.5 6.062zM100.537 219.781l3.5-6.062 3.5 6.062zM120.538 219.781l3.5-6.062 3.5 6.062zM140.538 219.781l3.5-6.062 3.5 6.062zM160.413 219.781l3.5-6.062 3.5 6.062zM180.538 219.781l3.5-6.062 3.5 6.062zM30.245 229.594l3.5-6.063 3.5 6.063zM50.35 229.594l3.5-6.063 3.5 6.063zM70.412 229.594l3.5-6.063 3.5 6.063zM90.412 229.594l3.5-6.063 3.5 6.063zM110.413 229.594l3.5-6.063 3.5 6.063zM130.413 229.594l3.5-6.063 3.5 6.063zM150.413 229.594l3.5-6.063 3.5 6.063zM170.288 229.594l3.5-6.063 3.5 6.063zM190.413 229.594l3.5-6.063 3.5 6.063zM40.245 239.656l3.5-6.062 3.5 6.062zM60.35 239.656l3.5-6.062 3.5 6.062zM80.412 239.656l3.5-6.062 3.5 6.062zM100.412 239.656l3.5-6.062 3.5 6.062zM120.413 239.656l3.5-6.062 3.5 6.062zM140.413 239.656l3.5-6.062 3.5 6.062zM160.413 239.656l3.5-6.062 3.5 6.062zM180.288 239.656l3.5-6.062 3.5 6.062zM50.309 249.656l3.5-6.062 3.5 6.062zM70.412 249.656l3.5-6.062 3.5 6.062zM90.475 249.656l3.5-6.062 3.5 6.062zM110.475 249.656l3.5-6.062 3.5 6.062zM130.475 249.656l3.5-6.062 3.5 6.062zM150.475 249.656l3.5-6.062 3.5 6.062zM170.475 249.656l3.5-6.062 3.5 6.062zM190.35 249.656l3.5-6.062 3.5 6.062zM60.309 259.531l3.5-6.062 3.5 6.062zM80.412 259.531l3.5-6.062 3.5 6.062zM100.474 259.531l3.5-6.062 3.5 6.062zM120.475 259.531l3.5-6.062 3.5 6.062zM140.475 259.531l3.5-6.062 3.5 6.062zM160.475 259.531l3.5-6.062 3.5 6.062zM180.475 259.531l3.5-6.062 3.5 6.062zM70.37 269.656l3.5-6.062 3.5 6.062zM90.475 269.656l3.5-6.062 3.5 6.062zM110.538 269.656l3.5-6.062 3.5 6.062zM130.538 269.656l3.5-6.062 3.5 6.062zM150.538 269.656l3.5-6.062 3.5 6.062zM170.538 269.656l3.5-6.062 3.5 6.062zM190.538 269.656l3.5-6.062 3.5 6.062zM80.37 279.969l3.5-6.063 3.5 6.063zM100.474 279.969l3.5-6.063 3.5 6.063zM120.538 279.969l3.5-6.063 3.5 6.063zM140.538 279.969l3.5-6.063 3.5 6.063zM160.538 279.969l3.5-6.063 3.5 6.063zM180.538 279.969l3.5-6.063 3.5 6.063zM90.495 290.031l3.5-6.062 3.5 6.062zM110.6 290.031l3.5-6.062 3.5 6.062zM130.663 290.031l3.5-6.062 3.5 6.062zM150.663 290.031l3.5-6.062 3.5 6.062zM170.663 290.031l3.5-6.062 3.5 6.062zM190.663 290.031l3.5-6.062 3.5 6.062zM100.371 299.739l3.5-6.062 3.5 6.062zM120.475 299.739l3.5-6.062 3.5 6.062zM140.538 299.739l3.5-6.062 3.5 6.062zM160.538 299.739l3.5-6.062 3.5 6.062zM180.538 299.739l3.5-6.062 3.5 6.062zM110.245 309.739l3.5-6.062 3.5 6.062zM130.35 309.739l3.5-6.062 3.5 6.062zM150.413 309.739l3.5-6.062 3.5 6.062zM170.413 309.739l3.5-6.062 3.5 6.062zM190.413 309.739l3.5-6.062 3.5 6.062zM120.434 319.656l3.5-6.062 3.5 6.062zM140.538 319.656l3.5-6.062 3.5 6.062zM160.6 319.656l3.5-6.062 3.5 6.062zM180.6 319.656l3.5-6.062 3.5 6.062zM130.184 329.656l3.5-6.062 3.5 6.062zM150.288 329.656l3.5-6.062 3.5 6.062zM170.35 329.656l3.5-6.062 3.5 6.062zM190.35 329.656l3.5-6.062 3.5 6.062zM140.12 339.654l3.5-6.062 3.5 6.062zM160.225 339.654l3.5-6.062 3.5 6.062zM180.288 339.654l3.5-6.062 3.5 6.062zM150.516 349.688l3.5-6.063 3.5 6.063zM170.62 349.688l3.5-6.063 3.5 6.063zM190.682 349.688l3.5-6.063 3.5 6.063zM159.87 359.656l3.5-6.062 3.5 6.062zM179.975 359.656l3.5-6.062 3.5 6.062zM170.319 369.654l3.5-6.062 3.5 6.062zM190.421 369.654l3.5-6.062 3.5 6.062zM180.288 379.654l3.5-6.062 3.5 6.062zM190.005 390.125l3.5-6.062 3.5 6.062z"/></svg><svg width="118.73" height="117.77" viewBox="-9.72 -10 118.73 117.77" id="pattern-triangle-rotated" y="9504" xmlns="http://www.w3.org/2000/svg"><path fill="#F7E895" d="M98.999 97.768l-7.125.003 3.564-6.172zM98.999 77.414l-7.127-.001 3.565-6.17zM98.999 57.058l-7.125.002 3.564-6.171zM99 36.703h-7.127l3.565-6.17zM99 16.347l-7.126.002 3.564-6.172zM88.821 87.591l-7.123.002 3.563-6.171zM88.821 67.235h-7.124l3.564-6.168zM88.822 46.882l-7.125-.001 3.563-6.17zM88.822 26.526h-7.125l3.563-6.17zM88.822 6.17h-7.125L85.26 0zM78.645 77.414l-7.128-.001 3.565-6.17zM78.644 57.058l-7.125.002 3.563-6.171zM78.644 36.703h-7.126l3.564-6.17zM78.644 16.347l-7.125.002 3.563-6.172zM68.466 67.235h-7.124l3.562-6.168zM68.467 46.882l-7.125-.001 3.562-6.17zM68.467 26.526h-7.125l3.562-6.17zM68.467 6.17h-7.125L64.904 0zM58.288 57.058l-7.123.002 3.563-6.171zM58.289 36.703h-7.124l3.563-6.17zM58.289 16.348h-7.124l3.563-6.17zM48.11 46.882l-7.124-.001 3.562-6.169zM48.11 26.526h-7.124l3.562-6.17zM48.11 6.171l-7.124-.001L44.548 0zM37.934 36.703h-7.125l3.562-6.17zM37.934 16.348h-7.125l3.562-6.17zM27.755 26.526H20.63l3.562-6.17zM17.578 16.348h-7.124l3.562-6.17zM7.4 6.17H.275L3.838 0zM27.755 6.17l-7.125.001L24.192 0z"/></svg><svg width="118.73" height="117.77" viewBox="-8.83 -11.54 118.73 117.77" id="pattern-triangle-rotated-r" y="9622" xmlns="http://www.w3.org/2000/svg"><path fill="#F7E895" d="M96.326-1.54l3.566 6.169h-7.126zM75.972-1.541l3.563 6.172-7.126-.002zM55.615-1.541l3.565 6.17h-7.127zM35.259-1.542l3.564 6.172-7.126-.002zM14.905-1.541L18.47 4.63l-7.126-.001zM86.149 8.637l3.565 6.168-7.127.001zM65.794 8.637l3.561 6.17-7.123-.002zM45.439 8.636l3.563 6.17h-7.125zM25.084 8.636l3.562 6.17h-7.125zM4.729 8.636l3.562 6.17-7.125.001zM75.972 18.814l3.563 6.173-7.126-.003zM55.615 18.815l3.565 6.169h-7.127zM35.26 18.814l3.563 6.171-7.126-.001zM14.906 18.815l3.564 6.169h-7.126zM65.794 28.993l3.561 6.17-7.122-.001zM45.439 28.991l3.563 6.171h-7.125zM25.084 28.991l3.562 6.171h-7.125zM4.729 28.991l3.562 6.171H1.166zM55.616 39.17l3.564 6.168-7.126.001zM35.261 39.169l3.562 6.17-7.124-.001zM14.906 39.169l3.563 6.17h-7.125zM45.44 49.348l3.561 6.17h-7.123zM25.084 49.348l3.561 6.17h-7.123zM4.729 49.348l3.562 6.17-7.125.001zM35.261 59.524l3.562 6.171H31.7zM14.906 59.524l3.563 6.171h-7.125zM25.084 69.703l3.562 6.171-7.125-.001zM14.906 79.88l3.563 6.17-7.125.001zM4.728 90.059l3.563 6.17H1.166zM4.729 69.703l3.562 6.171H1.166z"/></svg><svg width="44" height="44" fill-rule="evenodd" clip-rule="evenodd" viewBox="-10 -10 44 44" id="z-ico-wechat" y="9740" xmlns="http://www.w3.org/2000/svg"><path d="M21.502 19.525C23.026 18.42 24 16.787 24 14.971c0-3.326-3.237-6.023-7.229-6.023s-7.229 2.697-7.229 6.023c0 3.327 3.237 6.024 7.229 6.024.825 0 1.621-.117 2.36-.33l.212-.032c.139 0 .265.043.384.111l1.583.914.139.045a.241.241 0 0 0 .241-.241l-.039-.176-.326-1.215-.025-.154a.48.48 0 0 1 .202-.392zM8.675 2.297C3.884 2.297 0 5.533 0 9.526c0 2.178 1.168 4.139 2.997 5.464a.575.575 0 0 1 .243.471l-.03.184-.391 1.458-.047.211c0 .16.13.29.289.29l.168-.054 1.899-1.097a.908.908 0 0 1 .46-.133l.255.038c.886.255 1.842.397 2.832.397l.476-.012a5.586 5.586 0 0 1-.291-1.771c0-3.641 3.542-6.593 7.911-6.593l.471.012c-.653-3.453-4.24-6.094-8.567-6.094zm5.686 11.711a.964.964 0 1 1 .001-1.927.964.964 0 0 1-.001 1.927zm4.82 0a.964.964 0 1 1 0-1.928.964.964 0 0 1 0 1.928zM5.783 8.369a1.156 1.156 0 1 1 0-2.312 1.156 1.156 0 0 1 0 2.312zm5.783 0a1.156 1.156 0 1 1 0-2.312 1.156 1.156 0 0 1 0 2.312z"/></svg></svg>