<svg xmlns="http://www.w3.org/2000/svg" width="24" height="24" viewBox="0 0 24 24">
    <g fill="#4A4A4A" fill-rule="nonzero">
        <path d="M10.405 11.243h3.19a4.38 4.38 0 0 1 3.124 1.289 4.38 4.38 0 0 1 1.29 3.124V17.621H5.991V15.656a4.38 4.38 0 0 1 1.289-3.124 4.38 4.38 0 0 1 3.124-1.289zm3.19.966h-3.19c-.934 0-1.804.387-2.416 1.031a3.333 3.333 0 0 0-1.03 2.416v.967h10.05v-.967c0-.934-.386-1.804-.998-2.416a3.333 3.333 0 0 0-2.416-1.03zM11.984 4.446c.902 0 1.675.354 2.255.902a3.192 3.192 0 0 1 0 4.51c-.58.58-1.353.934-2.255.934-.87 0-1.643-.354-2.223-.934a3.192 3.192 0 0 1 0-4.51 3.226 3.226 0 0 1 2.223-.902zm1.546 1.61a2.19 2.19 0 0 0-1.546-.644c-.58 0-1.16.258-1.546.644a2.19 2.19 0 0 0-.645 1.547c0 .612.258 1.16.645 1.546.386.419.966.644 1.546.644.612 0 1.16-.225 1.546-.644h.032c.387-.387.612-.934.612-1.546s-.225-1.16-.644-1.547z"/>
        <path d="M11.984 0c3.318 0 6.314 1.353 8.505 3.511A11.953 11.953 0 0 1 24 11.984c0 3.318-1.353 6.314-3.511 8.505C18.298 22.647 15.302 24 11.984 24a11.953 11.953 0 0 1-8.473-3.511C1.353 18.298 0 15.302 0 11.984 0 8.666 1.353 5.67 3.511 3.51A11.953 11.953 0 0 1 11.984 0zm7.667 4.317C17.718 2.352 14.98 1.16 11.984 1.16a10.783 10.783 0 0 0-7.667 3.157 10.783 10.783 0 0 0-3.157 7.667c0 2.996 1.192 5.734 3.157 7.667a10.81 10.81 0 0 0 7.667 3.19c2.996 0 5.734-1.225 7.667-3.19a10.754 10.754 0 0 0 3.19-7.667 10.81 10.81 0 0 0-3.19-7.667z"/>
    </g>
</svg>
