<?xml version="1.0" encoding="UTF-8"?>
<svg width="50px" height="50px" viewBox="0 0 50 50" version="1.1" xmlns="http://www.w3.org/2000/svg" xmlns:xlink="http://www.w3.org/1999/xlink">
    <!-- Generator: Sketch 55.2 (78181) - https://sketchapp.com -->
    <title>IconWithRight 50_e</title>
    <desc>Created with Sketch.</desc>
    <g id="SSO_Final-Screens" stroke="none" stroke-width="1" fill="none" fill-rule="evenodd">
        <g id="IconWithRight-50_e">
            <g id="noun_User_2712460" fill-rule="nonzero">
                <g id="Group">
                    <path d="M24.966443,0 C31.8791946,0 38.1208054,2.81879195 42.6845638,7.31543624 C47.1812081,11.8120805 50,18.0536913 50,24.966443 C50,31.8791946 47.1812081,38.1208054 42.6845638,42.6845638 C38.1208054,47.1812081 31.8791946,50 24.966443,50 C18.0536913,50 11.8120805,47.1812081 7.31543624,42.6845638 C2.81879195,38.1208054 0,31.8791946 0,24.966443 C0,18.0536913 2.81879195,11.8120805 7.31543624,7.31543624 C11.8120805,2.81879195 18.0536913,0 24.966443,0 Z" id="Shape" fill="#318700"></path>
                    <path d="M21.6778523,23.4228188 L28.3221477,23.4228188 C30.8724832,23.4228188 33.1543624,24.4295302 34.8322148,26.1073826 C36.5100671,27.7852349 37.5167785,30.0671141 37.5167785,32.6174497 L37.5167785,35.6375839 L37.5167785,36.7114094 L36.5100671,36.7114094 L13.4899329,36.7114094 L12.4832215,36.7114094 L12.4832215,35.6375839 L12.4832215,32.6174497 C12.4832215,30.0671141 13.4899329,27.7852349 15.1677852,26.1073826 C16.8456376,24.4295302 19.1275168,23.4228188 21.6778523,23.4228188 Z M28.3221477,25.4362416 L21.6778523,25.4362416 C19.7315436,25.4362416 17.9194631,26.2416107 16.6442953,27.5838926 C15.3020134,28.8590604 14.4966443,30.6711409 14.4966443,32.6174497 L14.4966443,34.6308725 L35.4362416,34.6308725 L35.4362416,32.6174497 C35.4362416,30.6711409 34.6308725,28.8590604 33.3557047,27.5838926 C32.0805369,26.2416107 30.2684564,25.4362416 28.3221477,25.4362416 Z" id="Shape" fill="#FFFFFF"></path>
                    <path d="M24.966443,9.26174497 C26.8456376,9.26174497 28.4563758,10 29.6644295,11.1409396 C30.8724832,12.3489933 31.6107383,14.0268456 31.6107383,15.8389262 C31.6107383,17.6510067 30.8724832,19.3288591 29.6644295,20.5369128 L29.6644295,20.5369128 C28.4563758,21.7449664 26.8456376,22.4832215 24.966443,22.4832215 C23.1543624,22.4832215 21.5436242,21.7449664 20.3355705,20.5369128 L20.3355705,20.5369128 L20.3355705,20.5369128 C19.1275168,19.3288591 18.3892617,17.6510067 18.3892617,15.8389262 C18.3892617,14.0268456 19.1275168,12.3489933 20.3355705,11.1409396 L20.3355705,11.1409396 C21.5436242,10 23.1543624,9.26174497 24.966443,9.26174497 Z M28.1879195,12.6174497 C27.3825503,11.8120805 26.2416107,11.2751678 24.966443,11.2751678 C23.7583893,11.2751678 22.5503356,11.8120805 21.7449664,12.6174497 L21.7449664,12.6174497 C20.9395973,13.4228188 20.4026846,14.5637584 20.4026846,15.8389262 C20.4026846,17.114094 20.9395973,18.2550336 21.7449664,19.0604027 L21.7449664,19.0604027 C22.5503356,19.9328859 23.7583893,20.4026846 24.966443,20.4026846 C26.2416107,20.4026846 27.3825503,19.9328859 28.1879195,19.0604027 L28.2550336,19.0604027 C29.0604027,18.2550336 29.5302013,17.114094 29.5302013,15.8389262 C29.5302013,14.5637584 29.0604027,13.4228188 28.1879195,12.6174497 Z" id="Shape" fill="#FFFFFF"></path>
                </g>
            </g>
            <g id="Right_Tick" transform="translate(29.000000, 28.666667)" stroke="#318700">
                <circle id="Oval" stroke-width="1.5" fill="#FFFFFF" cx="10" cy="10" r="10"></circle>
                <path d="M8.52393109,14.6 C8.40172358,14.6 8.27951608,14.5479468 8.17476679,14.4611914 L4.15937739,10.7133586 C3.94987882,10.5224967 3.94987882,10.2101773 4.14191918,10.0019644 C4.33395954,9.79375143 4.64820741,9.79375143 4.85770598,9.98461329 L8.48901466,13.3854245 L15.1056781,5.57743951 C15.2802602,5.36922657 15.5945081,5.33452442 15.8214649,5.52538627 C16.0309634,5.69889705 16.0658799,6.01121645 15.8738395,6.23678047 L8.90801181,14.4264892 C8.82072074,14.5305957 8.69851324,14.6 8.55884752,14.6 C8.5413893,14.6 8.5413893,14.6 8.52393109,14.6 Z" id="Path" stroke-width="0.5" fill="#318700" fill-rule="nonzero"></path>
            </g>
        </g>
    </g>
</svg>